<svg width="452" height="429" viewBox="0 0 452 429" fill="none" xmlns="http://www.w3.org/2000/svg">
<path d="M322.894 181.679C325.809 180.597 330.189 178.731 333.172 180.163C332.022 182.829 328.255 183.494 325.694 184.596C317.448 188.162 307.636 193.912 301.49 200.542C299.609 202.575 298.042 204.86 296.861 207.359C296.542 208.027 296.244 208.692 295.993 209.392C295.429 210.908 298.674 209.611 299.124 209.444C300.957 208.744 306.486 205.608 308.185 207.824C306.737 209.691 303.988 210.992 301.956 212.142C299.374 213.591 296.777 215.027 294.295 216.659C289.796 219.643 285.433 223.539 284.232 229.059C282.466 237.141 272.474 227.125 270.426 224.59C266.042 219.126 263.429 212.576 261.015 206.061C233.379 235.123 264.511 258.785 279.335 282.718C315.082 340.412 290.564 416.534 224.369 427.701C195.834 432.516 162.538 417.135 146.083 396.02C140.053 388.304 134.703 379.056 132.857 369.322C132.038 364.957 130.606 352.907 134.687 349.926C144.082 343.042 145.765 363.158 147.746 367.707C157.359 389.689 176.929 410.084 211.044 409.367C242.873 408.703 269.674 381.973 272.673 352.708C276.889 311.549 242.909 289.033 217.707 269.386C217.958 269.585 217.588 274.17 217.671 274.818C217.874 276.549 218.323 278.233 218.94 279.868C220.173 283.167 222.138 286.152 224.286 288.917C228.868 294.851 234.146 300.116 237.845 306.682C239.261 309.197 242.324 313.849 239.926 316.531C238.378 318.262 235.129 318.461 233.013 318.962C230.081 319.631 226.951 320.431 224.27 321.847C221.072 323.531 218.308 325.91 215.658 328.378C213.924 329.993 213.308 332.628 211.41 334.128C207.278 337.427 209.811 331.661 210.778 329.946C211.243 329.13 213.527 324.41 214.374 324.378C197.151 325.063 188.257 339.345 179.562 347.559C178.428 348.625 176.281 349.158 174.813 348.745C176.547 338.31 186.925 329.727 195.154 324.279C196.451 323.411 201.268 319.181 202.715 319.38C198.066 318.732 193.404 321.911 189.705 324.347C187.374 325.879 185.127 327.51 182.776 329.03C181.543 329.83 179.494 331.812 178.031 331.88C175.099 332.027 179.081 327.112 179.96 326.094C181.793 323.996 183.977 322.178 186.224 320.546C187.426 319.679 200.949 312.38 201.049 312.715C199.633 307.832 196.853 314.879 192.72 312.715C196.001 305.997 208.045 308.047 217.707 307.712C215.491 295.484 197.736 284.385 191.053 271.054C190.154 263.485 194.402 261.069 196.053 256.055C166.719 229.524 132.79 209.094 129.425 161.066C128.824 152.566 129.242 143.95 130.642 135.55C131.99 127.551 134.091 119.719 136.636 112.039C139.154 104.454 142.066 97.0047 145.033 89.591C148.012 82.1574 150.796 74.6601 153.41 67.0753C156.11 59.2756 158.206 51.4957 159.257 43.2782C159.491 41.4635 159.408 39.6967 160.689 38.2482C165.621 32.6809 174.483 27.2967 179.045 22.2468C181.909 19.0473 185.091 16.1503 188.273 13.2811C191.507 10.4 194.768 7.56661 197.867 4.55019C198.619 3.81797 199.068 2.8828 199.7 2.06702C200.118 1.51785 200.615 0.984608 201.216 0.650334C201.467 0.519012 202.198 0.216574 202.481 0.351875C202.946 0.582683 202.115 1.68499 201.932 1.95161C201.765 2.18242 199.267 4.95212 199.418 5.28241C199.649 5.7679 202.334 3.619 202.648 3.51554C204.08 3.06586 204.963 1.98345 206.363 1.46612C207.994 0.869204 209.676 0.300143 211.41 0.0693347C212.226 -0.0500487 213.057 -0.0142337 213.841 0.168821C214.441 0.31606 215.09 0.435444 215.639 0.702067C216.589 1.15174 215.273 1.70091 214.807 1.9357C214.41 2.13467 214.008 2.36548 213.59 2.53261C212.624 2.93454 211.625 3.18524 210.611 3.46778C208.678 3.98511 206.598 4.45071 204.863 5.50128C204.179 5.89922 203.583 6.4842 203.081 7.0851C202.214 8.11578 203.698 8.31475 204.529 8.33465C205.798 8.36648 207.079 8.16751 208.344 8.03221C211.327 7.70192 214.493 7.26815 217.488 7.70191C218.172 7.8014 218.872 7.94864 219.521 8.23516C219.855 8.36648 220.221 8.60127 220.503 8.83208C221.402 9.65184 219.238 10.0657 218.721 10.2328C217.89 10.4835 217.039 10.6666 216.172 10.7979C214.306 11.1004 212.409 11.168 210.512 11.2993C208.678 11.4506 206.828 11.6336 205.015 11.9679C203.431 12.2663 201.765 12.6484 200.416 13.5676C199.685 14.081 199.116 14.7814 198.682 15.5494C198.233 16.3333 197.6 17.1173 197.867 18.0644C198.149 19.0314 199.235 19.3657 200.134 19.497C200.631 19.5646 201.148 19.5806 201.649 19.6005C203.563 19.6164 205.532 19.2821 207.429 19.6482C207.811 19.7159 208.212 19.8671 208.547 20.082C208.71 20.1815 209.159 20.5157 209.159 20.7147C209.179 21.1325 208.244 21.0649 207.962 21.1485C207.56 21.2639 207.162 21.4151 206.745 21.4827C205.862 21.63 204.999 21.7812 204.131 21.9483C202.413 22.2667 200.699 22.6328 199.016 23.0825C195.751 23.95 192.573 25.0961 189.558 26.6162C186.757 28.0329 184.061 29.7799 181.861 32.0323C179.777 34.1812 178.313 36.7957 177.697 39.7444C176.997 43.0474 177.263 46.4617 177.597 49.7965C177.645 50.2104 177.629 50.6799 177.728 51.0779C192.322 46.3304 196.952 31.2961 209.644 23.1302C214.624 19.9467 220.837 17.7978 229.365 17.75C244.241 17.6505 306.804 37.5478 290.998 57.7435C286.734 63.1953 254.185 75.4082 237.694 77.7402C230.348 78.7908 221.187 75.7266 216.04 77.7402C202.815 82.9254 203.73 96.6545 207.711 112.739C207.93 113.619 221.203 105.771 222.269 105.023C226.935 101.772 231.465 98.2383 236.529 95.588C238.112 94.7563 239.675 93.8888 241.358 93.272C241.906 93.0571 242.459 92.8581 243.008 92.8581C243.406 92.8382 243.657 92.7228 243.772 93.1048C243.875 93.455 243.808 93.7893 243.49 93.9724C243.092 94.2071 242.642 94.3584 242.209 94.5573C241.441 94.8876 240.574 95.3572 240.494 96.2884C240.427 97.14 246.337 96.2884 246.99 96.2406C250.705 95.9064 255.367 94.9075 258.564 97.4385C258.783 97.5897 259.097 97.904 259.113 98.1906C259.149 98.5885 258.747 98.5726 258.433 98.5885C257.164 98.688 255.931 98.306 254.635 98.3895C252.586 98.5049 250.57 98.3378 248.537 98.8074C246.337 99.3048 244.241 100.156 242.073 100.773C241.807 100.857 240.908 101.239 240.725 101.454C240.391 101.856 241.107 102.337 241.373 102.556C241.99 103.053 243.024 103.34 243.772 103.623C246.64 104.721 249.885 103.957 252.869 105.039C255.084 105.839 257.984 107.105 258.167 109.838C258.183 110.256 256.051 109.17 255.482 108.84C254.535 108.286 252.602 107.423 252.284 107.355C249.571 106.472 246.588 106.555 243.792 106.87C240.825 107.204 238.128 107.92 235.363 109.039C234.779 109.273 234.198 109.536 233.744 109.99C233.43 110.288 233.132 110.654 232.913 111.02C232.631 111.506 232.714 111.836 232.929 112.338C233.08 112.688 233.315 113.002 233.597 113.253C234.198 113.77 235.029 114.021 235.797 114.152C237.495 114.47 239.508 114.355 241.091 115.103C242.308 115.688 242.925 116.886 243.108 118.203C243.139 118.454 243.239 118.888 243.024 119.071C242.706 119.369 242.173 118.955 241.875 118.836C239.81 118.004 234.329 116.556 233.681 116.488C230.733 116.17 227.766 116.635 225.002 117.702C219.521 119.835 215.241 124.037 210.742 127.686C208.71 129.334 204.299 134.618 201.399 133.803C199.665 133.301 199.366 130.484 198.949 129.051C198.201 126.437 197.334 123.87 196.32 121.355C195.635 119.652 195.186 117.686 194.386 116.07C193.336 151.018 221.187 171.48 234.361 197.728C233.295 195.611 238.112 189.013 239.078 187.394C242.073 182.463 244.989 177.445 248.704 173.032C259.014 160.763 268.644 187.545 271.042 193.996C271.889 196.26 272.641 198.576 273.504 200.86C274.622 203.726 275.74 206.945 277.669 209.392C282.402 202.759 282.334 191.33 289.295 186.928C289.828 186.594 290.397 186.311 290.998 186.061C291.113 186.729 291.081 187.247 290.946 187.68C290.564 188.962 288.349 191.262 288.297 192.862C292.445 192.81 297.907 185.794 300.906 183.43C304.386 180.696 310.901 174.564 315.666 177.764C314.616 179.395 311.868 180.764 310.233 181.962C308.22 183.446 306.22 184.978 304.386 186.678C302.54 188.377 300.79 190.179 299.092 192.03C297.608 193.661 295.178 197.828 293.396 199.062C299.374 194.927 305.754 190.896 311.967 187.111C315.448 184.994 319.063 183.112 322.894 181.679Z" fill="black"/>
<path d="M120.079 285.568V311.633C53.1164 307.917 0 254.107 0 188.247C0 122.403 53.1164 68.5928 120.079 64.876V91.5422C67.3084 97.9054 26.5861 138.902 26.5861 188.561C26.5861 238.209 67.3084 279.201 120.079 285.568Z" fill="black"/>
<path d="M451.002 70.178V96.2076H375.365V197.298H426.484V222.428H375.365V305.948H346.631V223.025L329.69 223.06L329.722 198.03L346.265 198.014L346.213 69.5771L451.002 70.178Z" fill="black"/>
</svg>
