<svg id="Camada_1" data-name="Camada 1" xmlns="http://www.w3.org/2000/svg" viewBox="0 0 1114.89 1378.54"><defs><style>.cls-1,.cls-4,.cls-5,.cls-8{fill:none;}.cls-1{stroke:#fff;stroke-width:24.93px;}.cls-1,.cls-6,.cls-7{stroke-miterlimit:10;}.cls-2,.cls-3{fill:#c54b2f;}.cls-10,.cls-11,.cls-12,.cls-2,.cls-3,.cls-4,.cls-5,.cls-6,.cls-7,.cls-8,.cls-9{stroke:#000;}.cls-10,.cls-11,.cls-12,.cls-2,.cls-3,.cls-4,.cls-5,.cls-8,.cls-9{stroke-linecap:round;stroke-linejoin:round;}.cls-2,.cls-5{stroke-width:13.32px;}.cls-3,.cls-4{stroke-width:14.32px;}.cls-6,.cls-7{fill:#fff;}.cls-6{stroke-width:18.24px;}.cls-7{stroke-width:16.75px;}.cls-10,.cls-11,.cls-12,.cls-8{stroke-width:13.82px;}.cls-9{stroke-width:10.36px;}.cls-10{fill:#f8e9e9;}.cls-11{fill:#e8d0d0;}.cls-12{fill:#ae8b8a;}</style></defs><path class="cls-1" d="M125.49,543.16l-22.32-9.11a6.67,6.67,0,0,0-8.68,3.66,6.57,6.57,0,0,0-.49,2.52,6.64,6.64,0,0,0,4.15,6.16l22.32,9.11a6.66,6.66,0,0,0,8.68-3.66,6.57,6.57,0,0,0,.49-2.52A6.64,6.64,0,0,0,125.49,543.16Z"/><path class="cls-1" d="M992,556a6.71,6.71,0,0,0,2.51-.49l22.32-9.11a6.64,6.64,0,0,0,4.15-6.16,6.57,6.57,0,0,0-.49-2.52,6.66,6.66,0,0,0-8.68-3.66l-22.32,9.11a6.64,6.64,0,0,0-4.15,6.16,6.57,6.57,0,0,0,.49,2.52A6.67,6.67,0,0,0,992,556Z"/><circle class="cls-1" cx="384.47" cy="81.04" r="13.97"/><circle class="cls-1" cx="729.68" cy="83.72" r="13.97"/><circle class="cls-1" cx="648.14" cy="135" r="13.97"/><path class="cls-1" d="M561.83,40.4a14,14,0,1,0-14-14A14,14,0,0,0,561.83,40.4Z"/><path class="cls-1" d="M474.44,149a14,14,0,1,0-14-14A14,14,0,0,0,474.44,149Z"/><path class="cls-1" d="M339.91,212.77a14,14,0,1,0-14-14A14,14,0,0,0,339.91,212.77Z"/><path class="cls-1" d="M781.92,212.77a14,14,0,1,0-14-14A14,14,0,0,0,781.92,212.77Z"/><path class="cls-1" d="M369.65,829.84h50.86A28.9,28.9,0,0,0,449.36,801V771.73a28.9,28.9,0,0,0-28.85-28.86H369.65a28.9,28.9,0,0,0-28.86,28.86V801A28.9,28.9,0,0,0,369.65,829.84Zm-15-58.11a15.06,15.06,0,0,1,15-15h50.86a15.05,15.05,0,0,1,15,15V801a15,15,0,0,1-15,15H369.65a15.05,15.05,0,0,1-15-15Z"/><path class="cls-1" d="M369.65,960.27h50.86a28.9,28.9,0,0,0,28.85-28.86V902.16a28.9,28.9,0,0,0-28.85-28.86H369.65a28.9,28.9,0,0,0-28.86,28.86v29.25A28.9,28.9,0,0,0,369.65,960.27Zm-15-58.11a15.06,15.06,0,0,1,15-15h50.86a15.05,15.05,0,0,1,15,15v29.25a15,15,0,0,1-15,15H369.65a15.05,15.05,0,0,1-15-15Z"/><path class="cls-1" d="M369.65,1090.69h50.86a28.89,28.89,0,0,0,28.85-28.85v-29.26a28.89,28.89,0,0,0-28.85-28.85H369.65a28.9,28.9,0,0,0-28.86,28.85v29.26A28.89,28.89,0,0,0,369.65,1090.69Zm-15-58.11a15.05,15.05,0,0,1,15-15h50.86a15,15,0,0,1,15,15v29.26a15,15,0,0,1-15,15H369.65a15.05,15.05,0,0,1-15-15Z"/><path class="cls-1" d="M747.76,873.3H726.24a43.57,43.57,0,0,0-43.52,43.52v130.35a43.57,43.57,0,0,0,43.52,43.52h21.52a43.57,43.57,0,0,0,43.53-43.52,6.91,6.91,0,0,0-13.82,0,29.73,29.73,0,0,1-29.71,29.7H726.24a29.73,29.73,0,0,1-29.7-29.7V916.82a29.74,29.74,0,0,1,29.7-29.7h21.52a29.74,29.74,0,0,1,29.71,29.7V982a6.91,6.91,0,0,0,13.82,0V916.82A43.58,43.58,0,0,0,747.76,873.3Z"/><path class="cls-1" d="M784.38,995.4a6.91,6.91,0,0,0-6.91,6.91v20a6.91,6.91,0,0,0,13.82,0v-20A6.91,6.91,0,0,0,784.38,995.4Z"/><path class="cls-1" d="M559.52,589.1a6.91,6.91,0,0,0-6.91,6.91v4.53a6.91,6.91,0,0,0,13.82,0V596A6.91,6.91,0,0,0,559.52,589.1Z"/><path class="cls-1" d="M1095.64,754.74a4.15,4.15,0,0,0-.32-.27h0l0,0-49.75-36.72a90.15,90.15,0,0,0-46.82-17.34,90,90,0,0,0,49.42-20.86l48-40.65a6.56,6.56,0,0,0-2.46-11.39,4.48,4.48,0,0,0-.47-.28l-58.12-21.11a90.17,90.17,0,0,0-39.42-5,90,90,0,0,0,30-25.78l34.83-46.88a7,7,0,0,0,3.19-6.93,7.27,7.27,0,0,0-6.12-5.83l-61.29-7.34a90.28,90.28,0,0,0-32.35,2,94.93,94.93,0,0,0,29.89-37.14l27.35-60.86A6.66,6.66,0,0,0,1014,403l-.51,0-65.28,6.39a95.43,95.43,0,0,0-21.79,4.84,100.83,100.83,0,0,0,10.38-24.15l19.16-68.28a6.66,6.66,0,0,0-10.15-7.32L879.2,331.28a101,101,0,0,0-35.07,16.57,109.62,109.62,0,0,0,7.22-37L852.77,233a6.66,6.66,0,0,0-10.36-5.66l-.55.26-67.14,36.82a110.2,110.2,0,0,0-38.41,35.19,125.27,125.27,0,0,0,6.07-78.05l-21.15-86.58a7.49,7.49,0,0,0-.32-1.05,7.26,7.26,0,0,0-1-1.72,7.12,7.12,0,0,0-4.35-2.7,7,7,0,0,0-3.7.27,7.13,7.13,0,0,0-1.34.63h0a6.84,6.84,0,0,0-1.72,1.45c-.17.13-.34.28-.5.43l-63.64,60.42a125.93,125.93,0,0,0-20.77,25.78,118.13,118.13,0,0,0-15.48-69.1L567,77.84a5.65,5.65,0,0,0-.4-.48,6.58,6.58,0,0,0-4.26-3.69,6.66,6.66,0,0,0-7.49,3.09l-42.16,72.71a117.76,117.76,0,0,0-13.58,82.67l.51,3.28a125.66,125.66,0,0,0-29.35-42.75l-63.59-60.38a6.23,6.23,0,0,0-.55-.49,7.37,7.37,0,0,0-1.63-1.38h0a6.55,6.55,0,0,0-1.49-.7,7,7,0,0,0-3.62-.25,7.17,7.17,0,0,0-4.37,2.71,6.9,6.9,0,0,0-1,1.72,7.23,7.23,0,0,0-.32,1l-21.16,86.59a125.38,125.38,0,0,0,6.08,78.06,110.24,110.24,0,0,0-38.41-35.2L273,227.54c-.18-.1-.35-.18-.53-.26A6.67,6.67,0,0,0,262.15,233l1.43,77.87a109.85,109.85,0,0,0,7.21,37,100.82,100.82,0,0,0-35.06-16.57l-66.56-16.72A6.65,6.65,0,0,0,159,321.87l19.16,68.28a100.83,100.83,0,0,0,10.38,24.15,95.43,95.43,0,0,0-21.79-4.84l-65.34-6.4-.47,0a6.66,6.66,0,0,0-7.21,9.29l27.35,60.86A94.82,94.82,0,0,0,151,510.34a90.56,90.56,0,0,0-32.36-2L57.3,515.69a6.93,6.93,0,0,0-6.07,5.83,7.19,7.19,0,0,0,3.18,6.91l34.84,46.9a89.91,89.91,0,0,0,30,25.77,90.3,90.3,0,0,0-39.41,5L21.8,627.18c-.18.07-.32.2-.5.28a6.57,6.57,0,0,0-2.5,11.41l48,40.65a90,90,0,0,0,49.46,20.87,90.13,90.13,0,0,0-46.86,17.33L19.66,754.44l0,0h0l-.33.27a6.67,6.67,0,0,0,.86,11.73L77.7,791.84a89.36,89.36,0,0,0,36.13,7.64c.84,0,1.68-.11,2.52-.13A488.14,488.14,0,0,0,82,851.81h0L82,852l-.06.12-.08.14a7.59,7.59,0,0,0-.44.79c-58.23,104.33-52.21,187-51.93,190.42a6.66,6.66,0,0,0,6.64,6.12,7.17,7.17,0,0,0,1-.08l8.82-1.4,425.7,227.7-1,83.32a6.94,6.94,0,0,0,6.91,7,6.82,6.82,0,0,0,2.51-.48l67-26.09h2.15a7.31,7.31,0,0,0,1.33-.12,7.12,7.12,0,0,0,1.32.12H569.9a7,7,0,0,0,2.75-.57l68.46,26.66a6.81,6.81,0,0,0,2.5.48,6.92,6.92,0,0,0,6.91-7l-1-81.63,426.6-228.18,1.16.19a7.42,7.42,0,0,0,1,.08,6.65,6.65,0,0,0,6.63-6.12c.29-3.44,6.2-85-50.86-188.45a6.58,6.58,0,0,0-1.38-3.28,4.09,4.09,0,0,0-.23-.47l-1.94-2.69a487.25,487.25,0,0,0-32.48-49.19c1,0,2,.15,3,.15a89.53,89.53,0,0,0,36.17-7.65l57.56-25.37a6.66,6.66,0,0,0,.85-11.73Zm-58-26.29,29.11,21.47L953.37,735.35l-13.12-1.68c-.83-.8-1.7-1.58-2.54-2.37-1.38-1.31-2.76-2.61-4.17-3.9q-1.65-1.5-3.33-3c-1.5-1.34-3-2.68-4.55-4l-1.25-1.11,60.38-5.58A76.83,76.83,0,0,1,1037.61,728.45Zm-128-21.15q-5.73-4.44-11.84-8.78l83.71,2.13Zm129.91-37.95A77,77,0,0,1,988,687.5l-110.78-2.83-.09-.06-.45-.31c-.17-.1-.33-.22-.49-.33-.24-1.31-.51-2.59-.77-3.89s-.47-2.47-.72-3.69c-.08-.41-.16-.84-.24-1.24l194.87-31Zm-9-50.74,34.82,12.65L871.39,662.14c-.09-.33-.17-.64-.25-1L975.7,619.46A76.9,76.9,0,0,1,1030.52,618.61ZM867.41,648.32q-2.45-8-5.29-15.88l93.56-19.34ZM994.7,521.57l49.88,6L1015,567.38a76.66,76.66,0,0,1-46.08,29.38L857.34,619.82c-1-2.41-2.06-4.79-3.11-7.18L968.77,566a6.66,6.66,0,1,0-5-12.34L848.62,600.54c-.11-.22-.21-.46-.32-.69l93.2-65A77,77,0,0,1,994.7,521.57Zm-134.07,153-.84-.46c-1.31-.75-2.61-1.44-3.92-2.17-2.56-1.43-5.13-2.88-7.68-4.24V632.91c3.23,8.52,6.1,17.27,8.56,26.07q1.69,6.06,3.14,12.22C860.15,672.31,860.38,673.48,860.63,674.6Zm-12.44-90.91v-19L924,530.81Zm101.26-161L991,418.65l-28.67,20.53A6.66,6.66,0,0,0,970.14,450L998.9,429.4l-17.22,38.33a81.75,81.75,0,0,1-41.23,41.15L848,550.23c-.05-.67-.16-1.35-.23-2-.11-1.13-.22-2.26-.39-3.39-.12-.81-.29-1.62-.43-2.43-.19-1.06-.37-2.12-.6-3.17,0-.14,0-.28-.08-.42l98.15-70.33a6.66,6.66,0,1,0-7.76-10.83L842,525.46c-.3-.71-.67-1.41-1-2.12s-.77-1.69-1.18-2.52c-.57-1.13-1.18-2.23-1.8-3.33-.43-.77-.85-1.55-1.31-2.31-.12-.19-.21-.4-.33-.59l60.76-65.85A82,82,0,0,1,949.45,422.72Zm-115.62,178c.36.7.68,1.43,1,2.14v6.71a6.74,6.74,0,0,0,0,2.24v49.06c-.34-.17-.69-.31-1-.48q-8.1-4-16.25-7.61c-1.14-.51-2.27-1-3.41-1.48q-6.67-2.93-13.35-5.59c-.87-.36-1.75-.76-2.62-1.11V584.52a41.88,41.88,0,0,0-39.78-41.75,6.82,6.82,0,0,0-2.08-.35H582.83l-16.91-41.69v0a7.07,7.07,0,0,0-.93-1.57l-.27-.33a6.86,6.86,0,0,0-3-2l-.41-.13a6.12,6.12,0,0,0-3.66,0l-.41.13a6.8,6.8,0,0,0-2.95,2l-.27.33a7.07,7.07,0,0,0-.93,1.57v0l-17,41.93h-161a41.91,41.91,0,0,0-41.86,41.86v53c-.91.33-1.79.7-2.7,1q-8.1,2.93-16,6.1c-1.2.49-2.42.95-3.62,1.44q-9.22,3.78-18.17,7.88c-.47.22-1,.41-1.44.62V556.06a65.78,65.78,0,0,1,8.2-31.73,67.2,67.2,0,0,1,39-31.54h0a65.4,65.4,0,0,1,14.12-2.62c1.58-.12,3.17-.18,4.75-.18H768.8a66.12,66.12,0,0,1,10.58.94,65.15,65.15,0,0,1,25,9.61,66.41,66.41,0,0,1,18.11,17.26q1.65,2.31,3.08,4.72a66.14,66.14,0,0,1,9.29,33.54v37.26A6.57,6.57,0,0,0,833.83,600.76Zm-49-16.24v55.1c-3-1.08-6-2.06-9-3.09-2.21-.75-4.39-1.53-6.63-2.26-7-2.3-14.13-4.52-21.31-6.55q-8.42-2.38-17-4.52c-1.86-.47-3.74-.88-5.61-1.32-3.85-.93-7.7-1.87-11.6-2.72-2.29-.51-4.62-.95-6.93-1.43-3.5-.73-7-1.47-10.52-2.14-2.54-.48-5.12-.9-7.68-1.35-3.32-.58-6.63-1.19-10-1.72-2.74-.44-5.5-.81-8.25-1.21-3.21-.47-6.4-1-9.63-1.38-2.85-.37-5.73-.68-8.59-1-3.16-.37-6.31-.76-9.49-1.08-2.94-.31-5.91-.55-8.87-.81-3.13-.28-6.24-.57-9.38-.81s-6-.39-9-.58c-2.36-.14-4.7-.33-7.07-.45l-19.85-48.94H756.33a6.77,6.77,0,0,0,1.5-.18A28.55,28.55,0,0,1,784.86,584.52ZM530.45,556.6l-19.52,48.14c-4.07.15-8.09.42-12.13.64-2.64.14-5.29.23-7.91.41-6.14.41-12.24.94-18.31,1.51-1.33.13-2.68.21-4,.34q-11.16,1.14-22.16,2.65c-1.65.22-3.26.51-4.91.75-5.61.82-11.21,1.66-16.75,2.63-2.52.44-5,1-7.51,1.42-4.62.87-9.24,1.73-13.8,2.7-2.79.59-5.53,1.25-8.29,1.88-4.24,1-8.46,1.93-12.65,3-2.89.72-5.74,1.51-8.61,2.28-4,1.07-8,2.16-11.92,3.31-2.92.86-5.82,1.76-8.72,2.66-2.22.69-4.47,1.32-6.68,2V584.52A28.57,28.57,0,0,1,375.11,556H399a7,7,0,0,0,2.81.61h16.89a7,7,0,0,0,2.81-.61h21.36a7,7,0,0,0,2.81.61Zm-275-86.68,46.34,29.65a79.14,79.14,0,0,0-9.14,10.67Zm72.37-48.52L379,476.67H365.39ZM738,474.51l49.1-53.1-37.52,55.26h-8.31C740.15,475.93,739.05,475.23,738,474.51Zm90.3,29.2a79.58,79.58,0,0,0-8.6-8.33l39.78-25.45Zm95.66-117.16a87.32,87.32,0,0,1-37,50l-79,50.54c-.58-.32-1.18-.58-1.76-.89-1.11-.59-2.23-1.16-3.36-1.7s-2.52-1.16-3.81-1.69-2.33-.94-3.52-1.36c-.61-.22-1.2-.5-1.82-.71l143.42-141Zm-41.47-42.34,41.76-10.51L778.14,477.29c-.74-.09-1.43-.14-2.15-.21-.56-.06-1.13-.12-1.68-.16-1.89-.15-3.73-.25-5.51-.25h-3.16L831.29,380A87.57,87.57,0,0,1,882.45,344.21ZM736.39,328.62a96.9,96.9,0,0,1,44.74-52.57l46.47-25.48L751.69,376.16a6.66,6.66,0,1,0,11.4,6.89L839,257.46l-1,53.11a96.52,96.52,0,0,1-25.65,63.83l-85.8,92.79c-1.6-1-3.26-1.82-4.87-2.76-2.76-1.61-5.5-3.2-8.31-4.73s-5.45-2.88-8.19-4.28c-1.47-.75-2.9-1.57-4.38-2.29l-.39-.21c-2.25-1.15-4.63-2.25-7-3.35Zm-55.18,115.6c-5.64-2.29-11.55-4.44-17.67-6.48L723.75,324.4ZM654.54,203.05,699.92,160l-20.73,70.84a7.4,7.4,0,0,0-.29,2,7.16,7.16,0,0,0,14,2l20.69-70.73,14.86,60.8a111,111,0,0,1-9.83,78.57L649.9,432.89q-7.06-2-14.53-3.81l44-151.53a7,7,0,0,0,.28-2,7.16,7.16,0,0,0-14-2L621.33,426.07c-4.41-.84-9-1.61-13.6-2.28l12.45-149.11A111.44,111.44,0,0,1,654.54,203.05Zm-87.3-98.18L596.91,156a105.25,105.25,0,0,1,12,74.2L579.29,421.36l-.37,0-2-.1c-1.41-.08-2.82-.16-4.18-.22l-3-.11-2.53-.08ZM594.5,410.22l-1,12.31a6.15,6.15,0,0,0-.86-.13Zm-33.92,23.84c7.2,0,15,.33,23.84,1,1.51.12,3,.28,4.5.44l2.7.29c.06,0,1.91.13,5.1.48a7.09,7.09,0,0,0,2.42.78c9,1.13,17.63,2.58,25.74,4.32h0c9.23,2,18.13,4.29,26.46,6.87a7.13,7.13,0,0,0,2.12.32c.1,0,.2,0,.3,0A282.3,282.3,0,0,1,682.05,459c.15.07.25.2.4.27,4.24,1.84,8.45,3.82,12.64,5.87q5,2.44,9.92,5.08c1,.55,2.07,1.14,3.1,1.71,2.45,1.35,4.9,2.71,7.3,4.12l1,.59H668a297.59,297.59,0,0,0-29.66-9.82c-1.26-.34-2.53-.66-3.8-1l-1.85-.48c-4.13-1-10.6-2.51-18.07-4-5.71-1.05-11.32-1.92-16.68-2.61-6.14-.77-12.2-1.36-18-1.73a261.86,261.86,0,0,0-38.71,0c-3.66.24-7.3.56-11.09.93a419.4,419.4,0,0,0-52.58,10.33l-.22.07c-7.84,2.3-15.88,5.08-23.93,8.24H404.77l1.89-1.09q5.08-2.94,10.27-5.7c1.17-.62,2.33-1.24,3.5-1.84,4.31-2.21,8.64-4.36,13-6.36,9.48-4.32,19-8.08,28.61-11.37.11,0,.22,0,.33,0a7.28,7.28,0,0,0,2.24-.36c8.38-2.76,17.07-5.21,25.82-7.26l.12,0c8.87-2.08,17.18-3.67,25.41-4.87a7.17,7.17,0,0,0,2.49-.88q8.76-1.18,17.66-1.87h0l.52,0c3.92-.3,7.6-.53,11.15-.69C552.07,434.22,556.3,434.06,560.58,434.06ZM391.16,324.36l61.25,115.29q-8.94,3.25-17.81,7.07Zm122-1.14,15.32,99.11c-2.34.23-4.66.52-7,.79Zm11-167.07,29.73-51.28v316c-2.21.05-4.49.14-6.82.25-1.76.07-3.54.11-5.29.21l-29.62-191.5A104.68,104.68,0,0,1,524.19,156.15ZM386.45,224.91l14.85-60.8L422,234.84a7.16,7.16,0,0,0,14-2,7.4,7.4,0,0,0-.29-2L415,160l45.38,43.08a111.44,111.44,0,0,1,34.36,71.63l12.52,150c-4.37.74-8.79,1.59-13.32,2.56L449.33,273.55a7.16,7.16,0,1,0-13.75,4l44.41,153c-4.73,1.23-9.44,2.56-14.07,4L396.27,303.48A111.1,111.1,0,0,1,386.45,224.91ZM363.24,376.16,287.33,250.57l46.47,25.48a96.86,96.86,0,0,1,44.73,52.56h0l43.86,123.53c-.6.28-1.17.62-1.77.91-4.8,2.34-9.57,4.75-14.26,7.33l-.57.33c-4.54,2.51-9,5.17-13.41,7.89-.58.36-1.18.67-1.76,1L302.55,374.4a96.48,96.48,0,0,1-25.65-63.83l-1-53.11,75.91,125.59a6.66,6.66,0,1,0,11.4-6.89Zm-130.76-32A87.61,87.61,0,0,1,283.64,380l65.92,97.08c-.63.06-1.24.18-1.86.26-.91.11-1.81.22-2.72.37s-2,.35-3,.55-1.72.34-2.57.54l-.94.19L190.72,333.71Zm-54.6-4.45,146.6,144.12c-.6.27-1.16.61-1.75.89-1,.48-1.91,1-2.86,1.47-1.15.63-2.27,1.29-3.4,2-.91.56-1.82,1.11-2.71,1.71-.38.25-.79.47-1.17.73L228,436.55a87.34,87.34,0,0,1-37-50Zm-44.63,128L116,429.4,144.79,450a6.66,6.66,0,0,0,7.76-10.83l-28.66-20.53,41.59,4.07a82,82,0,0,1,52.34,26l67.78,73.47a.14.14,0,0,0,0,.06c-1.1,2.31-2,4.67-2.9,7.06,0,.07-.06.13-.08.2l-104.39-72a6.66,6.66,0,1,0-7.56,11l108.4,74.72c-.17,1.06-.35,2.12-.49,3.19,0,.24,0,.48-.07.72-.27,2.42-.43,4.84-.48,7.28,0,.23,0,.46,0,.7L174.48,508.88A81.75,81.75,0,0,1,133.25,467.73ZM277.57,590.9l-.13.25L190.9,530.81,278,569.74v20.45Zm.39,29.73V661c-2.27,1.14-4.56,2.42-6.84,3.61-2.54,1.33-5.06,2.62-7.61,4-.6.33-1.2.62-1.8.95.66-2.8,1.33-5.61,2.08-8.38h0a304.91,304.91,0,0,1,9.89-30.1c1.24-3.2,2.56-6.42,3.93-9.64C277.73,621.16,277.85,620.9,278,620.63Zm-178-53.25-29.6-39.84,49.89-6a77,77,0,0,1,53.2,13.3l96,67-118.27-48.2a6.67,6.67,0,0,0-8.69,3.65,6.75,6.75,0,0,0-.49,2.51,6.67,6.67,0,0,0,4.15,6.18L266,614.78c-.23.53-.44,1.06-.67,1.59-.32.75-.63,1.5-.94,2.26s-.68,1.58-1,2.38L146,596.76A76.67,76.67,0,0,1,99.94,567.38Zm158.67,66.26q-3,8.4-5.53,16.89L159.22,613.1Zm-174.2-15a76.9,76.9,0,0,1,54.82.86L248,662.84,49.56,631.27Zm-9,50.74L45.64,644.14l200.91,32-.51,2.53q-4.87,3-9.67,6.07L127,687.5A77.2,77.2,0,0,1,75.42,669.35Zm140.82,29.19q-5.9,4.29-11.53,8.71l-71.26-6.6ZM77.32,728.45A76.89,76.89,0,0,1,123,713.4q3.56,0,7.11.33L190,719.26c-.49.42-1,.86-1.45,1.28-1.44,1.25-2.85,2.51-4.27,3.78-1.17,1-2.34,2.09-3.48,3.14-1.46,1.34-2.88,2.68-4.3,4l-2.41,2.26-13.2,1.7L48.21,749.92Zm5.76,51.2-36.5-16.08,13.13-1.69,99-12.73c-.32.33-.61.68-.93,1q-6.79,7.15-13.3,14.55c-1.31,1.48-2.6,3-3.89,4.46q-5.74,6.63-11.25,13.42c-.65.8-1.34,1.56-2,2.36A76.25,76.25,0,0,1,83.08,779.65ZM43.91,1014.27c-.08.47-.38,3.27-.76,6.91-.11,1.08-.24,2.38-.39,3.79,1.33-29.13,9.32-91.85,49.74-164.59a2.43,2.43,0,0,0,.2-.25,5.2,5.2,0,0,0,.55-.69,6.46,6.46,0,0,0,.8-1.27,6.28,6.28,0,0,0,.31-.86,5.35,5.35,0,0,0,.24-.67,481.37,481.37,0,0,1,41.7-61.47,544.6,544.6,0,0,1,44.35-49.27l1.11-1.06h0a383.64,383.64,0,0,1,29-25.51C220.57,711.57,231.09,704,242,697l7.63-4.78c1.95-1.21,3.86-2.47,5.84-3.65h0c10.68-6.38,21.49-12.25,32.12-17.45a483.12,483.12,0,0,1,54.53-22.58q9.76-3.36,19.75-6.36c2.33-.7,4.71-1.32,7.07-2,4.35-1.24,8.69-2.5,13.1-3.64,2.8-.73,5.65-1.37,8.47-2,4-1,8-2,12.12-2.86,3-.66,6.07-1.24,9.11-1.85,3.95-.8,7.9-1.61,11.89-2.33,3.14-.57,6.31-1.06,9.48-1.58C437,625.2,441,624.55,445,624c3.24-.46,6.51-.86,9.78-1.27,4-.5,7.93-1,11.92-1.42,3.34-.36,6.69-.66,10.05-1,4-.36,8-.7,12-1,3.42-.24,6.86-.44,10.3-.63,2.12-.12,4.26-.2,6.4-.3L491,653.78c-53.5,4.1-103.61,13.45-149,27.76a6.94,6.94,0,0,0-2.22.43,6.42,6.42,0,0,0-1.3.68c-12,3.87-22.11,7.41-31.42,11.08-7.73,3-15.75,6.49-25.24,10.86-3.48,1.62-6.94,3.3-10.38,5-9.76,4.79-19.21,9.82-28.09,15l0,0-1.71,1a418.19,418.19,0,0,0-60.75,43l-.7.61c-4.44,3.83-9.09,8-14.2,12.91q-8.55,8.11-16.63,16.74a400.56,400.56,0,0,0-43.65,55.77l-1.17,1.77c-.71,1.06-1.41,2.13-2.08,3.2a420.14,420.14,0,0,0-41.83,88.11A407.84,407.84,0,0,0,43.91,1014.27Zm174.59-258q6.25-4.39,12.76-8.61c1.17-.77,2.36-1.52,3.55-2.27,1.61-1,3.28-2,4.92-3,0,2.34.06,4.67.13,7Zm22.11,6.85c0,.52.07,1,.11,1.55l-15.41,3.4Zm1.25,14.94c.06.46.15.94.2,1.4L146.71,822q4.74-5.58,9.68-11c1.05-1.14,2-2.32,3.09-3.45q7-7.45,14.42-14.5ZM244,793.19c.13.8.2,1.6.34,2.41l-67.08,48.08A58.48,58.48,0,0,1,137,854.32l-13.85-1.48c1.31-1.9,2.59-3.81,3.94-5.69.65-.91,1.31-1.81,2-2.71Zm3.21,16.74c0,.21.09.42.14.63l-3.47,1.76Zm-80.86,70.61a48.82,48.82,0,0,1,23.4-25.78l60.75-30.85.1.4-31.95,25.45-58.47,46.56ZM200,881.67l54.67-43.53c.18.57.37,1.14.55,1.7l-39.62,47.44a48.64,48.64,0,0,1-30.26,17l-16.82,2.49Zm27.54,30.88,37-47.29c.29.69.62,1.37.91,2q1.8,4.22,3.72,8.37c.55,1.19,1.11,2.37,1.67,3.55q1.92,4,3.95,8c.33.66.64,1.33,1,2l-11.13,41.93a48.72,48.72,0,0,1-20.26,28.17L219.13,976l-1.92-30.16A48.85,48.85,0,0,1,227.53,912.55Zm45.18-62.86c-1.31-3.48-2.52-7-3.7-10.54-1.55-4.58-3-9.35-4.38-14.17q-1.72-6.12-3.21-12.33v0c-1.2-5-2.28-10.19-3.21-15.26-1.73-9.42-3-18.83-3.85-28-.45-5.06-.79-10.27-1-15.47-.16-4.08-.31-8.18-.31-12.31,0-2.44.08-4.86.17-7.28,1.87-1.06,3.78-2.12,5.7-3.17s3.86-2.13,5.85-3.19c.55-.28,1.12-.56,1.67-.85v.08c-.51,6.11-.83,12.37-.95,18.64l-.07,2.21c0,1.19-.08,2.4-.08,3.61,0,4.42.15,8.82.34,13.21.28,6.26.75,12.53,1.41,18.63.71,6.59,1.71,13.4,3.06,20.84l.24,1.38c.39,2.2.79,4.41,1.25,6.59.66,3.18,1.42,6.33,2.19,9.48.89,3.65,1.87,7.25,2.89,10.84.31,1.06.64,2.11,1,3.15l.27.85v26l-.57-1.33C275.76,857.44,274.17,853.57,272.71,849.69Zm203.61,362.87a6.9,6.9,0,0,0-4,6.18l-.5,41.45-417-223.06c.45-3.48.94-8.16,1.6-14.58.33-3.15.58-5.61.66-6.16A395.17,395.17,0,0,1,73.23,952a406.63,406.63,0,0,1,40.49-85.32c.29-.47.59-.91.89-1.37l21,2.23a72.71,72.71,0,0,0,7.64.41,71.38,71.38,0,0,0,15.45-1.72,62.81,62.81,0,0,0-4.68,9.44L139,914a4.21,4.21,0,0,0-.09.49,6.58,6.58,0,0,0,0,5.15,6.67,6.67,0,0,0,6.11,4,6.58,6.58,0,0,0,1-.08l41.32-6.11a62,62,0,0,0,29.67-13,62.08,62.08,0,0,0-13,42.19l2.61,41.12a1.49,1.49,0,0,0,0,.21,6.66,6.66,0,0,0,10.33,5.43l34.86-23a62,62,0,0,0,25.8-35.87L278,933v147.17a80,80,0,0,0,1.48,15.1v14.38a78,78,0,0,0,77.91,77.91H530.18Zm62.51,115.32L484.59,1349l.25-21.55,54-23.21Zm0-38.67L485,1312.34l.28-23.41,53.53-23Zm0-38.33-53.35,22.94.21-17.76,53.14-22.85Zm0-32.71-53,22.77.22-17.68,52.74-24.53Zm0-141.3h-1.19a15,15,0,0,1-15-15v-29.26a15,15,0,0,1,15-15h1.19Zm0-130.42h-1.19a15,15,0,0,1-15-15V902.16a15.05,15.05,0,0,1,15-15h1.19Zm0-130.43h-3.77a12.46,12.46,0,0,1-12.45-12.45V769.15a12.47,12.47,0,0,1,12.45-12.46h3.77Zm0-73.15h-3.77a26.31,26.31,0,0,0-26.27,26.28v34.42a26.31,26.31,0,0,0,26.27,26.27h3.77V873.3h-1.19a28.9,28.9,0,0,0-28.85,28.86v29.25a28.9,28.9,0,0,0,28.85,28.86h1.19v43.46h-1.19a28.89,28.89,0,0,0-28.85,28.85v29.26a28.89,28.89,0,0,0,28.85,28.85h1.19v55.51H357.35a66.15,66.15,0,0,1-66.07-66.07V714.93c7.58-3.43,14.27-6.28,20.68-8.8,8-3.15,16.61-6.22,26.59-9.5A42.39,42.39,0,0,0,375.11,718H538.83Zm0-38.69H375.11a28.39,28.39,0,0,1-22.83-11.82c40.88-12.35,85.57-20.64,133.13-24.7L482,676a6.91,6.91,0,0,0,9.57,8.74l37.7-19.45,1.07,0c2.83-.1,5.66-.16,8.49-.25ZM563,657.91v667.78H552.65V737h0V696.63h0V653.27l6.87-3.54,3.47,1.79Zm10.07-16.75-6.63-3.41v-14.7a6.91,6.91,0,0,0-13.82,0v14.7l-10,5.17-18.27,9.42-22.49,11.6,50.79-125.2v37.93a6.91,6.91,0,0,0,13.82,0V538.74L571.8,552l0,.06,45.39,111.9-22.46-11.58h0l-21.67-11.18ZM637,676l-3.26-8a705.68,705.68,0,0,1,80.93,12,569,569,0,0,1,60.76,16.5,28.19,28.19,0,0,1-19.14,7.63H576.81V665c4.33.09,8.67.18,13,.34l37.66,19.43a6.84,6.84,0,0,0,3.17.77A6.91,6.91,0,0,0,637,676Zm-58.89,573a6.7,6.7,0,0,0-1.34-.42v-17.83l58.66,25.23.21,17.76Zm57.71,39.85.28,23.41-58-24.93a6.7,6.7,0,0,0-1.34-.42v-23.45Zm-57.71-72.56a6.7,6.7,0,0,0-1.34-.42v-19.78l58.27,27.09.21,17.68Zm10.35-125.68a28.89,28.89,0,0,0,28.86-28.85v-29.26a28.9,28.9,0,0,0-28.86-28.85H576.81V960.27H588.5a28.9,28.9,0,0,0,28.86-28.86V902.16A28.9,28.9,0,0,0,588.5,873.3H576.81V829.84H765a26.31,26.31,0,0,0,26.28-26.27V769.15A26.31,26.31,0,0,0,765,742.87H576.81V718H756.33a42.2,42.2,0,0,0,33.36-16.54,488.5,488.5,0,0,1,45.17,19v359.62a66.14,66.14,0,0,1-66.06,66.07h-192v-55.51Zm-11.69-13.82v-59.32H588.5a15,15,0,0,1,15,15v29.26a15,15,0,0,1-15,15Zm0-130.42V887.12H588.5a15.05,15.05,0,0,1,15,15v29.25a15,15,0,0,1-15,15Zm0-130.43V756.69H765a12.47,12.47,0,0,1,12.46,12.46v34.42A12.47,12.47,0,0,1,765,816H576.81Zm0,509.71v-23.86l59.51,25.59.26,21.55Zm72.55-63.84-.51-43.15a6.92,6.92,0,0,0-4-6.18l-53.86-25H768.8a78,78,0,0,0,77.91-77.91v-14.38a80,80,0,0,0,1.48-15.1V956.38a61.89,61.89,0,0,0,15,14l34.86,23a6.66,6.66,0,0,0,10.33-5.48c0-.1,0-.2,0-.29l2.61-41a62.13,62.13,0,0,0-13-42.19,62,62,0,0,0,29.67,13L969,923.54a6.58,6.58,0,0,0,1,.08,6.55,6.55,0,0,0,6.07-9.19c0-.17,0-.34-.1-.5l-15-38.24a62.81,62.81,0,0,0-4.68-9.44A71.38,71.38,0,0,0,971.73,868a72.57,72.57,0,0,0,7.64-.41l20.41-2.17a398.69,398.69,0,0,1,22.48,40.3,413,413,0,0,1,28.25,77.7,343.19,343.19,0,0,1,9.06,49.36c.3,2.85.59,5.72.7,8.59,0,.24.12.45.15.68ZM855.77,749.3l0-1.4c-.06-5.54-.31-11.3-.73-17.17l.4.22c3.26,1.74,6.64,3.6,10,5.56.89.52,1.77,1.06,2.65,1.61,0,1.16.08,2.31.08,3.47,0,4.33-.11,9-.36,14.27-.22,4.79-.56,9.64-1,14.84-.44,4.66-1,9.41-1.74,14.54-.79,5.54-1.7,10.93-2.7,16-.91,4.59-2,9.36-3.17,14.18-1.12,4.55-2.36,9.06-3.68,13.52-1.6,5.39-3.29,10.58-5,15.41h0q-1.06,3-2.21,5.95V818l.34-1.44c.7-3.08,1.36-6.17,2-9.28,1.21-6.34,2.24-12.95,3-19.63.47-3.78.86-7.59,1.17-11.4l.09-1c.25-3,.5-6,.65-9,.25-5,.37-9.92.37-14.6C855.82,750.85,855.79,750.08,855.77,749.3Zm33.82,18.78-9.14-2c0-.31,0-.62.07-.92Zm-8.33-16.69c0-.59,0-1.13,0-1.71s0-1.18,0-1.76,0-.94,0-1.4c.61.4,1.23.77,1.83,1.16,2.48,1.63,4.93,3.32,7.37,5,1.56,1.07,3.13,2.14,4.68,3.24Zm59.12,41.52q1.79,1.7,3.51,3.38c.77.76,1.57,1.51,2.32,2.26,1.41,1.39,2.77,2.78,4.13,4.16.71.73,1.45,1.46,2.16,2.19,1.37,1.42,2.7,2.85,4,4.27.63.69,1.3,1.37,1.92,2.05q2.91,3.15,5.68,6.32c1.21,1.38,2.42,2.81,3.63,4.24l-88.94-39.65c.11-.91.23-1.81.33-2.7ZM879,796.77l106.42,47.45c1.2,1.65,2.37,3.3,3.54,5,.83,1.18,1.69,2.35,2.51,3.53l.11.16L978,854.32a58.55,58.55,0,0,1-40.31-10.64L876.13,799.6c.23-1.25.45-2.52.67-3.79Zm46.19,58a48.82,48.82,0,0,1,23.4,25.78l6.17,15.77L869.43,828.4l.48-1.7Zm-33.07,8.71,54.34,43.27-16.82-2.49a48.64,48.64,0,0,1-30.26-17l-35.13-42.07,1-3.11Zm-41.71,15.34c1.21-2.54,2.44-5.08,3.56-7.59.13-.29.28-.58.41-.87l33.06,42.2a48.85,48.85,0,0,1,10.32,33.26L895.8,976l-25.28-16.68a48.68,48.68,0,0,1-20.26-28.17l-2.07-7.82V883.47C849,881.91,849.63,880.37,850.37,878.81Zm168.86-23.31,1.7,3.09.1.18h0l.13.24h0l0,0c38.71,69.16,48.12,129.34,50.19,160.56a378.26,378.26,0,0,0-7.95-39.49,426.09,426.09,0,0,0-29.16-80.2,413.2,413.2,0,0,0-25.46-45.21c-4.26-6.58-8.88-13.23-13.7-19.78-6.88-9.34-13.92-18.14-20.94-26.15-2-2.25-4-4.49-6-6.72-6.16-6.68-12.72-13.31-19.9-20.08l0,0c-4.68-4.43-9.57-8.83-14.54-13.07A420.37,420.37,0,0,0,878,728.63l-2.14-1.32c-1.26-.78-2.52-1.56-3.8-2.31-7.81-4.56-15.76-8.65-21.81-11.72h0L848,712.13c-1.19-.61-2.37-1.22-3.56-1.8a505.39,505.39,0,0,0-53.73-22.68c-.15-.1-.29-.23-.45-.32a6.78,6.78,0,0,0-2.89-.85A581,581,0,0,0,717.48,667a726.48,726.48,0,0,0-89.37-13l-14.25-35.14c1.38.09,2.76.15,4.13.24q3.76.25,7.51.55c3.35.26,6.7.55,10,.86q3.86.36,7.68.76c3.25.34,6.5.72,9.73,1.11,2.58.31,5.16.62,7.73,1,3.19.42,6.36.89,9.53,1.36,2.57.38,5.13.76,7.68,1.17,3.18.52,6.33,1.08,9.48,1.64,2.5.44,5,.87,7.49,1.35,3.23.62,6.43,1.29,9.63,2,2.37.5,4.75,1,7.11,1.49,3.5.77,7,1.61,10.45,2.45,2,.48,4,.93,6,1.43q8.16,2.06,16.2,4.32c15.36,4.35,30.46,9.35,44.9,14.89a477,477,0,0,1,49.31,22.23c9.34,4.86,18.79,10.23,28.1,16L870,695.9a6.39,6.39,0,0,0,3.08,2c11.15,7.17,21.11,14.22,30.42,21.51a362.34,362.34,0,0,1,29,25.35l1.26,1.16,1.08,1.1c11.4,11.27,22.36,23.08,32.7,35.3q5.34,6.3,10.46,12.74A482,482,0,0,1,1019.23,855.5Zm12.62-75.85A76.18,76.18,0,0,1,987,784.87c-.64-.79-1.32-1.55-2-2.34q-5.52-6.79-11.28-13.45c-1.29-1.49-2.57-3-3.88-4.44-4.36-4.93-8.8-9.81-13.34-14.59-.3-.32-.58-.66-.89-1l112.74,14.5Z"/><path class="cls-2" d="M561.23,81.22l41.44,71.47a111.77,111.77,0,0,1,12.8,78.56L567.92,538.34a3.71,3.71,0,0,1-7.34-.74V81.39A.35.35,0,0,1,561.23,81.22Z"/><path class="cls-2" d="M560.58,80.1l-42.16,72.71a111.46,111.46,0,0,0-12.75,78.31l47.31,306a3.84,3.84,0,0,0,7.6-.77Z"/><path class="cls-3" d="M501.88,274.09a118.74,118.74,0,0,0-36.56-76.23l-63.64-60.42a.37.37,0,0,0-.61.37l-.38-1.32L379.5,223.21A118.32,118.32,0,0,0,390,306.84l117.21,220.6c2.3,4.34,8.9,1.65,7.51-3.06L442.45,275.55l72.61,250.14a3.94,3.94,0,0,0,7.7-1.44Z"/><path class="cls-2" d="M458.1,532.81,384.81,326.39A103.54,103.54,0,0,0,337,270.22L269.87,233.4a.32.32,0,0,0-.43.44l88.1,145.77L268.82,232.82l1.42,77.88a103.26,103.26,0,0,0,27.43,68.23l148,160a3.56,3.56,0,0,0,5.66-4.26l.62,1A3.43,3.43,0,0,0,458.1,532.81Z"/><path class="cls-2" d="M401.19,541.26l-112-165a94.29,94.29,0,0,0-55-38.49l-67.62-17c-.11,0-.18,0-.25.1l-.81-.78,19.16,68.28a94.07,94.07,0,0,0,39.86,53.81l167.19,107a3.25,3.25,0,0,0,4.79-3.88A3.12,3.12,0,0,0,401.19,541.26Z"/><path class="cls-2" d="M58.15,522.3H58a.26.26,0,0,0-.07.5l.82.35L94.6,571.35a83.36,83.36,0,0,0,50.07,31.94l172.38,35.62a2.84,2.84,0,0,0,3.38-3.33,2.76,2.76,0,0,0,1.9-5L177.23,529.4A83.67,83.67,0,0,0,119.44,515l-59.52,7.13"/><path class="cls-2" d="M306,678.82,141.7,613.28a83.66,83.66,0,0,0-59.57-.93L24,633.46a.26.26,0,0,0,0,.5l-.95-.17,48,40.64a83.39,83.39,0,0,0,56,19.72l176-4.49a2.87,2.87,0,0,0,.43-5.7l1,.17A2.78,2.78,0,0,0,306,678.82Z"/><path class="cls-2" d="M306,729l1-.11a2.77,2.77,0,0,0-.05-5.52l-176.14-16.3a83.69,83.69,0,0,0-57.39,16L23.61,759.8a.26.26,0,0,0,.18.47l-1,.11,57.56,25.37a83.43,83.43,0,0,0,59.31,3l167.48-54.17A2.87,2.87,0,0,0,306,729Z"/><path class="cls-2" d="M290.81,765l.69-.3a2.17,2.17,0,0,0-1.35-4.1L155.07,790.38a65.43,65.43,0,0,0-38.94,25.56L87.8,855.12a.21.21,0,0,0,.25.31h0l-.69.3,48.91,5.21a65.21,65.21,0,0,0,44.9-11.84L293,768.91A2.25,2.25,0,0,0,290.81,765Z"/><path class="cls-2" d="M297.55,818.51l.28-.58a1.84,1.84,0,0,0-3.1-2l-72.45,92.47a55.52,55.52,0,0,0-11.71,37.79l2.6,41a.17.17,0,0,0,.33.07l-.29.57,34.86-23a55.34,55.34,0,0,0,23-32l30-113A1.91,1.91,0,0,0,297.55,818.51Z"/><path class="cls-2" d="M220.71,891.55l74.93-89.73a1.91,1.91,0,0,0-2.66-2.71L288.89,795l4.59,3.69a1.84,1.84,0,0,0-2-3.09l-104.74,53.2a55.55,55.55,0,0,0-26.58,29.29l-15,38.25a.17.17,0,0,0,.26.2l-.5.39,41.32-6.11A55.43,55.43,0,0,0,220.71,891.55Z"/><line class="cls-4" x1="400.69" y1="136.49" x2="428.87" y2="232.82"/><circle cx="372.47" cy="402.1" r="7.5"/><line class="cls-2" x1="396.43" y1="545.26" x2="174.63" y2="327.23"/><path class="cls-2" d="M350,582.13,222.71,444.23a88.73,88.73,0,0,0-56.58-28.14l-65.29-6.39a.27.27,0,0,0-.18.5l-.84-.6,27.35,60.86A88.48,88.48,0,0,0,171.76,515l55.94,25,18,8h0l96.57,43.18a3,3,0,0,0,3-5.26l.83.59A2.94,2.94,0,0,0,350,582.13Z"/><line class="cls-2" x1="174.43" y1="463.05" x2="333.01" y2="576.67"/><line class="cls-2" x1="100.66" y1="410.2" x2="148.67" y2="444.6"/><line class="cls-5" x1="122.98" y1="549.32" x2="100.66" y2="540.22"/><line class="cls-5" x1="322.33" y1="630.57" x2="148.67" y2="559.79"/><line class="cls-5" x1="306" y1="678.82" x2="24.06" y2="633.96"/><line class="cls-5" x1="306.89" y1="723.39" x2="23.61" y2="759.8"/><line class="cls-5" x1="290.81" y1="765.03" x2="88.05" y2="855.43"/><line class="cls-5" x1="145.48" y1="916.56" x2="293.48" y2="798.71"/><path class="cls-3" d="M613.05,274.09a118.69,118.69,0,0,1,36.56-76.23l63.64-60.42a.37.37,0,0,1,.61.37l.38-1.32,21.19,86.72A118.43,118.43,0,0,1,725,306.84L607.77,527.44c-2.3,4.34-8.9,1.65-7.51-3.06l72.22-248.83L599.87,525.69a3.94,3.94,0,0,1-7.7-1.44Z"/><path class="cls-2" d="M656.83,532.81l73.29-206.42a103.54,103.54,0,0,1,47.81-56.17l67.13-36.82a.32.32,0,0,1,.43.44l-88.1,145.77,88.72-146.79-1.42,77.88a103.26,103.26,0,0,1-27.43,68.23l-148,160a3.56,3.56,0,0,1-5.66-4.26l-.62,1A3.43,3.43,0,0,1,656.83,532.81Z"/><path class="cls-2" d="M713.73,541.26l112-165a94.29,94.29,0,0,1,55-38.49l67.62-17c.11,0,.18,0,.25.1l.81-.78-19.16,68.28a94.07,94.07,0,0,1-39.86,53.81l-167.19,107a3.25,3.25,0,0,1-4.79-3.88A3.13,3.13,0,0,1,713.73,541.26Z"/><path class="cls-2" d="M1056.78,522.3h.11a.26.26,0,0,1,.07.5l-.82.35-35.81,48.19a83.36,83.36,0,0,1-50.07,31.94L797.88,638.91a2.85,2.85,0,0,1-3.39-3.33,2.76,2.76,0,0,1-1.9-5L937.7,529.4A83.67,83.67,0,0,1,995.49,515l59.51,7.13"/><path class="cls-2" d="M808.93,678.82l164.3-65.54a83.66,83.66,0,0,1,59.57-.93l58.11,21.11a.26.26,0,0,1,0,.5l1-.17-48,40.64a83.36,83.36,0,0,1-56,19.72l-176-4.49a2.87,2.87,0,0,1-.43-5.7l-.95.17A2.78,2.78,0,0,1,808.93,678.82Z"/><path class="cls-2" d="M809,729l-1-.11a2.77,2.77,0,0,1,0-5.52l176.14-16.3a83.65,83.65,0,0,1,57.38,16l49.76,36.72a.26.26,0,0,1-.18.47l.95.11-57.55,25.37a83.43,83.43,0,0,1-59.31,3L807.75,734.61A2.87,2.87,0,0,1,809,729Z"/><path class="cls-2" d="M824.12,765l-.69-.3a2.17,2.17,0,0,1,1.35-4.1l135.07,29.75a65.42,65.42,0,0,1,38.95,25.56l28.32,39.18a.2.2,0,0,1-.24.31h0l.69.3-48.91,5.21a65.21,65.21,0,0,1-44.9-11.84L821.89,768.91A2.25,2.25,0,0,1,824.12,765Z"/><path class="cls-2" d="M817.38,818.51l-.29-.58a1.85,1.85,0,0,1,3.11-2l72.45,92.47a55.52,55.52,0,0,1,11.71,37.79l-2.6,41a.17.17,0,0,1-.33.07l.29.57-34.87-23a55.37,55.37,0,0,1-23-32l-30-113A1.91,1.91,0,0,1,817.38,818.51Z"/><path class="cls-2" d="M894.22,891.55l-74.93-89.73a1.91,1.91,0,0,1,2.66-2.71L826,795l-4.59,3.69a1.84,1.84,0,0,1,2-3.09l104.74,53.2a55.55,55.55,0,0,1,26.58,29.29l15,38.25a.18.18,0,0,1-.27.2l.5.39-41.32-6.11A55.43,55.43,0,0,1,894.22,891.55Z"/><line class="cls-4" x1="714.24" y1="136.49" x2="686.06" y2="232.82"/><circle cx="742.46" cy="402.1" r="7.5"/><line class="cls-2" x1="718.5" y1="545.26" x2="940.3" y2="327.23"/><path class="cls-2" d="M765,582.13l127.25-137.9a88.73,88.73,0,0,1,56.58-28.14l65.29-6.39a.27.27,0,0,1,.18.5l.83-.6-27.35,60.86A88.48,88.48,0,0,1,943.16,515l-55.93,25-18,8L772.7,591.18a3,3,0,0,1-3-5.26l-.83.59A2.94,2.94,0,0,1,765,582.13Z"/><line class="cls-2" x1="940.5" y1="463.05" x2="781.92" y2="576.67"/><line class="cls-2" x1="1014.27" y1="410.2" x2="966.26" y2="444.6"/><line class="cls-5" x1="991.95" y1="549.32" x2="1014.27" y2="540.22"/><line class="cls-5" x1="792.59" y1="630.57" x2="966.26" y2="559.79"/><line class="cls-5" x1="808.93" y1="678.82" x2="1090.87" y2="633.96"/><line class="cls-5" x1="808.04" y1="723.39" x2="1091.32" y2="759.8"/><line class="cls-5" x1="824.12" y1="765.03" x2="1026.88" y2="855.43"/><line class="cls-5" x1="969.44" y1="916.56" x2="821.45" y2="798.71"/><path class="cls-6" d="M560.58,1055.79c-173.25,0-314.19-140.95-314.19-314.19S387.33,427.4,560.58,427.4s314.2,141,314.2,314.2S733.83,1055.79,560.58,1055.79Z"/><path class="cls-7" d="M560.58,1040.21C401.46,1040.21,272,910.76,272,751.63S401.46,463.05,560.58,463.05,849.16,592.51,849.16,751.63,719.7,1040.21,560.58,1040.21Z"/><line class="cls-8" x1="47.51" y1="1041.07" x2="559.34" y2="1314.83"/><line class="cls-8" x1="1076.85" y1="1041.07" x2="565.02" y2="1314.83"/><rect class="cls-9" x="284.62" y="512.81" width="556.9" height="669.54" rx="72.73"/><rect class="cls-10" x="284.62" y="483.33" width="556.9" height="669.54" rx="72.73"/><rect class="cls-11" x="347.7" y="749.78" width="94.75" height="73.15" rx="21.95"/><path class="cls-11" d="M535.07,822.93a19.42,19.42,0,0,1-19.37-19.37V769.15a19.43,19.43,0,0,1,19.37-19.37H765a19.43,19.43,0,0,1,19.37,19.37v34.41A19.43,19.43,0,0,1,765,822.93"/><rect class="cls-11" x="347.7" y="880.21" width="94.75" height="73.15" rx="21.95"/><rect class="cls-11" x="515.7" y="880.21" width="94.75" height="73.15" rx="21.95"/><rect class="cls-11" x="347.7" y="1010.64" width="94.75" height="73.15" rx="21.95"/><rect class="cls-11" x="515.7" y="1010.64" width="94.75" height="73.15" rx="21.95"/><path class="cls-11" d="M784.38,1047.17a36.72,36.72,0,0,1-36.61,36.61H726.24a36.72,36.72,0,0,1-36.61-36.61V916.82a36.72,36.72,0,0,1,36.61-36.61h21.53a36.72,36.72,0,0,1,36.61,36.61"/><path class="cls-11" d="M756.33,549.32a35.29,35.29,0,0,1,35.19,35.2v91.37a35.29,35.29,0,0,1-35.19,35.2H375.11a35.3,35.3,0,0,1-35.2-35.2V584.52a35.3,35.3,0,0,1,35.2-35.2"/><path class="cls-12" d="M559,657.79c52.74,0,105.63,4.84,157.05,15.74,53.35,11.31,105.46,29.67,152.65,57.22a404.27,404.27,0,0,1,100.41,82.4,400,400,0,0,1,59.11,89.65,419.52,419.52,0,0,1,28.71,79,352.09,352.09,0,0,1,9.23,50.32c.31,3,.61,6,.73,9l11.42,1.81S1091,891.13,938.47,741.16C841,645.34,692.61,607.3,554.63,611.2h0c-138-3.9-281.22,34.14-378.66,130-152.51,150-139.89,301.72-139.89,301.72l11.43-1.81c.42-.07,2.74-24.29,3-25.74a401.26,401.26,0,0,1,16.44-65.46,413.69,413.69,0,0,1,41.15-86.71,394.06,394.06,0,0,1,77.12-89.47c36.81-31.55,79.27-56,124.32-73.76,58.28-23,120.47-34.86,182.78-39.57C514.43,658.68,536.72,657.8,559,657.79Z"/><polygon class="cls-11" points="643.61 1359.16 641.94 1218.82 559.34 1180.43 561.91 1327.34 643.61 1359.16"/><line class="cls-8" x1="642.27" y1="1251.46" x2="575.42" y2="1222.72"/><line class="cls-8" x1="642.27" y1="1284.17" x2="575.42" y2="1255.43"/><line class="cls-8" x1="642.27" y1="1322.49" x2="575.42" y2="1293.76"/><polygon class="cls-11" points="477.55 1359.16 479.23 1218.82 561.83 1180.43 559.26 1327.34 477.55 1359.16"/><rect class="cls-11" x="545.74" y="566.85" width="24.16" height="767.32"/><polygon class="cls-2" points="559.52 641.95 488.41 678.64 559.52 503.32 630.63 678.64 559.52 641.95"/><line class="cls-8" x1="559.52" y1="576.67" x2="559.52" y2="503.32"/><line class="cls-8" x1="478.9" y1="1251.46" x2="545.74" y2="1222.72"/><line class="cls-8" x1="478.9" y1="1284.17" x2="545.74" y2="1255.43"/><line class="cls-8" x1="478.9" y1="1322.49" x2="545.74" y2="1293.76"/><circle cx="384.47" cy="81.04" r="13.97"/><circle cx="729.68" cy="83.72" r="13.97"/><circle cx="648.14" cy="135" r="13.97"/><circle cx="561.83" cy="26.43" r="13.97"/><circle cx="474.44" cy="135" r="13.97"/><circle cx="339.91" cy="198.8" r="13.97"/><circle cx="781.92" cy="198.8" r="13.97"/><line class="cls-8" x1="569.9" y1="822.93" x2="700.15" y2="822.93"/><line class="cls-8" x1="724.78" y1="822.93" x2="743.12" y2="822.93"/><line class="cls-8" x1="784.38" y1="916.82" x2="784.38" y2="982"/><line class="cls-8" x1="784.38" y1="1002.32" x2="784.38" y2="1022.32"/><line class="cls-8" x1="756.33" y1="549.32" x2="578.18" y2="549.32"/><line class="cls-8" x1="531.99" y1="549.69" x2="445.64" y2="549.69"/><line class="cls-8" x1="401.77" y1="549.69" x2="418.66" y2="549.69"/><line class="cls-8" x1="559.52" y1="641.95" x2="559.52" y2="623.05"/><line class="cls-8" x1="559.52" y1="596.01" x2="559.52" y2="600.54"/></svg>