<svg width="903" height="1031" viewBox="0 0 903 1031" fill="none" xmlns="http://www.w3.org/2000/svg">
<g clip-path="url(#clip0_1278_2)">
<path d="M609.77 219.1H187.2C145.95 219.1 112.51 252.54 112.51 293.79V832.04C112.51 873.29 145.95 906.73 187.2 906.73H609.77C651.02 906.73 684.46 873.29 684.46 832.04V293.79C684.46 252.54 651.02 219.1 609.77 219.1Z" fill="black" stroke="black" stroke-width="10.64" stroke-linecap="round" stroke-linejoin="round"/>
<path d="M609.77 188.82H187.2C145.95 188.82 112.51 222.26 112.51 263.51V801.76C112.51 843.01 145.95 876.45 187.2 876.45H609.77C651.02 876.45 684.46 843.01 684.46 801.76V263.51C684.46 222.26 651.02 188.82 609.77 188.82Z" fill="#F8E9E9" stroke="black" stroke-width="14.19" stroke-linecap="round" stroke-linejoin="round"/>
<path d="M252.07 462.48H199.84C187.391 462.48 177.3 472.571 177.3 485.02V515.06C177.3 527.508 187.391 537.6 199.84 537.6H252.07C264.518 537.6 274.61 527.508 274.61 515.06V485.02C274.61 472.571 264.518 462.48 252.07 462.48Z" fill="#E8D0D0" stroke="black" stroke-width="14.19" stroke-linecap="round" stroke-linejoin="round"/>
<path d="M369.72 537.6C364.454 537.571 359.412 535.466 355.688 531.742C351.964 528.019 349.859 522.976 349.83 517.71V482.37C349.859 477.104 351.964 472.061 355.688 468.338C359.412 464.614 364.454 462.509 369.72 462.48H605.88C611.146 462.509 616.189 464.614 619.913 468.338C623.636 472.061 625.741 477.104 625.77 482.37V517.71C625.741 522.976 623.636 528.019 619.913 531.742C616.189 535.466 611.146 537.571 605.88 537.6" fill="#E8D0D0"/>
<path d="M369.72 537.6C364.454 537.571 359.412 535.466 355.688 531.742C351.964 528.019 349.859 522.976 349.83 517.71V482.37C349.859 477.104 351.964 472.061 355.688 468.338C359.412 464.614 364.454 462.509 369.72 462.48H605.88C611.146 462.509 616.189 464.614 619.913 468.338C623.636 472.061 625.741 477.104 625.77 482.37V517.71C625.741 522.976 623.636 528.019 619.913 531.742C616.189 535.466 611.146 537.571 605.88 537.6" stroke="black" stroke-width="14.19" stroke-linecap="round" stroke-linejoin="round"/>
<path d="M252.07 596.43H199.84C187.391 596.43 177.3 606.521 177.3 618.97V649.01C177.3 661.458 187.391 671.55 199.84 671.55H252.07C264.518 671.55 274.61 661.458 274.61 649.01V618.97C274.61 606.521 264.518 596.43 252.07 596.43Z" fill="#E8D0D0" stroke="black" stroke-width="14.19" stroke-linecap="round" stroke-linejoin="round"/>
<path d="M424.6 596.43H372.37C359.922 596.43 349.83 606.521 349.83 618.97V649.01C349.83 661.458 359.922 671.55 372.37 671.55H424.6C437.049 671.55 447.14 661.458 447.14 649.01V618.97C447.14 606.521 437.049 596.43 424.6 596.43Z" fill="#E8D0D0" stroke="black" stroke-width="14.19" stroke-linecap="round" stroke-linejoin="round"/>
<path d="M252.07 730.38H199.84C187.391 730.38 177.3 740.471 177.3 752.92V782.96C177.3 795.408 187.391 805.5 199.84 805.5H252.07C264.518 805.5 274.61 795.408 274.61 782.96V752.92C274.61 740.471 264.518 730.38 252.07 730.38Z" fill="#E8D0D0" stroke="black" stroke-width="14.19" stroke-linecap="round" stroke-linejoin="round"/>
<path d="M424.6 730.38H372.37C359.922 730.38 349.83 740.471 349.83 752.92V782.96C349.83 795.408 359.922 805.5 372.37 805.5H424.6C437.049 805.5 447.14 795.408 447.14 782.96V752.92C447.14 740.471 437.049 730.38 424.6 730.38Z" fill="#E8D0D0" stroke="black" stroke-width="14.19" stroke-linecap="round" stroke-linejoin="round"/>
<path d="M625.77 767.9C625.741 777.863 621.77 787.41 614.725 794.455C607.68 801.5 598.133 805.471 588.17 805.5H566.06C556.097 805.471 546.55 801.5 539.505 794.455C532.46 787.41 528.489 777.863 528.46 767.9V634C528.489 624.037 532.46 614.49 539.505 607.445C546.55 600.4 556.097 596.429 566.06 596.4H588.17C598.133 596.429 607.68 600.4 614.725 607.445C621.77 614.49 625.741 624.037 625.77 634" fill="#E8D0D0"/>
<path d="M625.77 767.9C625.741 777.863 621.77 787.41 614.725 794.455C607.68 801.5 598.133 805.471 588.17 805.5H566.06C556.097 805.471 546.55 801.5 539.505 794.455C532.46 787.41 528.489 777.863 528.46 767.9V634C528.489 624.037 532.46 614.49 539.505 607.445C546.55 600.4 556.097 596.429 566.06 596.4H588.17C598.133 596.429 607.68 600.4 614.725 607.445C621.77 614.49 625.741 624.037 625.77 634" stroke="black" stroke-width="14.19" stroke-linecap="round" stroke-linejoin="round"/>
<path d="M597 256.6C606.578 256.629 615.755 260.447 622.526 267.221C629.298 273.994 633.113 283.172 633.14 292.75V386.59C633.113 396.167 629.297 405.344 622.526 412.116C615.754 418.888 606.577 422.704 597 422.73H205.44C195.863 422.704 186.686 418.888 179.914 412.116C173.142 405.344 169.326 396.167 169.3 386.59V292.75C169.326 283.172 173.142 273.994 179.913 267.221C186.685 260.447 195.862 256.629 205.44 256.6" fill="#E8D0D0"/>
<path d="M597 256.6C606.578 256.629 615.755 260.447 622.526 267.221C629.298 273.994 633.113 283.172 633.14 292.75V386.59C633.113 396.167 629.297 405.344 622.526 412.116C615.754 418.888 606.577 422.704 597 422.73H205.44C195.863 422.704 186.686 418.888 179.914 412.116C173.142 405.344 169.326 396.167 169.3 386.59V292.75C169.326 283.172 173.142 273.994 179.913 267.221C186.685 260.447 195.862 256.629 205.44 256.6" stroke="black" stroke-width="14.19" stroke-linecap="round" stroke-linejoin="round"/>
<path d="M205.44 256.6H520.59" stroke="black" stroke-width="14.19" stroke-linecap="round" stroke-linejoin="round"/>
<path d="M548.13 256.6H571.38" stroke="black" stroke-width="14.19" stroke-linecap="round" stroke-linejoin="round"/>
<path d="M628.9 692.21C644.28 686.41 655.9 673.4 662.83 658.5C669.14 644.98 677.67 630.06 687.07 622.99C700.55 612.85 720.25 614.99 734.77 623.53C768.77 643.62 796.12 682.66 820.95 711.35C834.4 726.89 847.18 742.97 859.44 759.47C874.18 779.3 890.61 799.47 890.3 825.47C889.78 869.83 863.19 898.62 821.01 906.05C807.47 908.44 802.78 902.78 787.45 912.05C784.619 913.85 782.122 916.127 780.07 918.78C766.93 934.89 747.62 944.69 726.88 944.69H458.93C458.93 944.69 450.84 885.09 503.93 879.86C503.93 879.86 499.93 795.01 574.41 791.11C574.4 791.08 567.46 715.37 628.9 692.21Z" fill="#F5A148" stroke="black" stroke-width="13.68" stroke-miterlimit="10"/>
<path d="M287.13 894.77C300.23 884.15 279.13 861.59 287.67 847.07C296.21 832.55 310.09 822.07 323.57 811.9C326.19 809.9 328.68 807.8 331.21 805.72C352.07 788.56 372.62 771 393 753.24C404.59 743.12 416.11 732.92 427.4 722.47C432.04 718.18 436.68 713.87 441.16 709.4C447.93 702.64 456.05 699.09 464.55 694.68C480.84 686.22 505.34 692.39 522.26 698.13C554.78 709.13 564.8 730.02 570.26 760.83C572.47 773.4 567.75 778.35 574.46 791.28C579.16 800.28 589.46 805.8 598.6 812.07C602.839 815.023 606.281 818.979 608.619 823.586C610.957 828.192 612.119 833.306 612 838.47C611.77 850.47 611.52 869.24 611.68 889.04C611.779 899.919 609.723 910.71 605.63 920.79C601.537 930.87 595.489 940.039 587.834 947.77C580.179 955.5 571.069 961.638 561.029 965.829C550.99 970.021 540.219 972.183 529.34 972.19H315.91C280.09 972.19 257.97 931.08 279.61 902.53C281.791 899.646 284.316 897.04 287.13 894.77Z" fill="#F5A148" stroke="black" stroke-width="13.68" stroke-miterlimit="10"/>
<path d="M890.703 690.938C892.23 690.762 893.769 690.622 895.32 690.52C893.761 690.716 892.222 690.855 890.703 690.938C847.922 695.88 814.981 729.538 816.316 768.659C816.329 768.935 816.34 769.212 816.35 769.49C816.337 769.213 816.326 768.936 816.316 768.659C814.216 722.015 775.59 690.474 737.38 690.52C776.21 686.84 812.762 653.129 816.35 611.55C821.06 652.427 848.154 693.282 890.703 690.938Z" fill="white"/>
<path d="M895.32 690.52C850.01 693.504 814.451 728.617 816.35 769.49C814.674 722.39 775.817 690.474 737.38 690.52C776.21 686.84 812.762 653.129 816.35 611.55C821.229 653.887 850.118 696.199 895.32 690.52Z" stroke="black" stroke-width="14.19" stroke-linecap="round" stroke-linejoin="round"/>
<path d="M405.5 1023.63C409.787 979.673 447.501 945.256 484.47 944.66C436.695 945.169 405.517 905.972 405.5 865.69C399.652 910.839 362.848 944.452 326.53 944.66C363.594 944.728 397.758 981.508 405.5 1023.63Z" fill="white" stroke="black" stroke-width="14.19" stroke-linecap="round" stroke-linejoin="round"/>
<path d="M794.425 596.41C795.469 596.397 796.521 596.403 797.58 596.43C796.52 596.445 795.468 596.438 794.425 596.41C749.7 596.971 718.961 633.726 718.61 675.4C718.786 631.293 683.767 595.328 639.64 596.43C684.985 594.754 716.88 555.891 718.61 517.46C721.419 554.424 749.96 595.186 794.425 596.41Z" fill="white"/>
<path d="M797.58 596.43C751.152 595.257 718.969 632.753 718.61 675.4C718.786 631.293 683.767 595.328 639.64 596.43C684.985 594.754 716.88 555.891 718.61 517.46C721.485 555.291 751.313 597.1 797.58 596.43Z" stroke="black" stroke-width="14.19" stroke-linecap="round" stroke-linejoin="round"/>
<path d="M804.34 865.6C807.007 865.34 809.673 864.983 812.34 864.53Z" fill="#69A55A"/>
<path d="M804.34 865.6C807.007 865.34 809.673 864.983 812.34 864.53" stroke="black" stroke-width="11.81" stroke-linecap="round" stroke-linejoin="round"/>
<path d="M528.46 800.69C531.15 800.42 533.84 800.07 536.46 799.62Z" fill="#69A55A"/>
<path d="M528.46 800.69C531.15 800.42 533.84 800.07 536.46 799.62" stroke="black" stroke-width="11.81" stroke-linecap="round" stroke-linejoin="round"/>
<path d="M718.61 831.36C736.015 848.805 758.424 860.392 782.72 864.51Z" fill="#69A55A"/>
<path d="M718.61 831.36C736.015 848.805 758.424 860.392 782.72 864.51" stroke="black" stroke-width="11.81" stroke-linecap="round" stroke-linejoin="round"/>
<path d="M508.5 800.15C502.193 800.156 495.945 798.92 490.116 796.51C484.287 794.101 478.989 790.567 474.527 786.109C470.064 781.651 466.524 776.357 464.109 770.53C461.693 764.703 460.45 758.458 460.45 752.15" stroke="black" stroke-width="11.81" stroke-linecap="round" stroke-linejoin="round"/>
<path d="M398.49 256.6H275.16" stroke="black" stroke-width="14.19" stroke-linecap="round" stroke-linejoin="round"/>
<path d="M235.19 256.6H252.53" stroke="black" stroke-width="14.19" stroke-linecap="round" stroke-linejoin="round"/>
<path d="M392.53 537.6H409.87" stroke="black" stroke-width="14.19" stroke-linecap="round" stroke-linejoin="round"/>
<path d="M605.88 537.6H441.52" stroke="black" stroke-width="14.19" stroke-linecap="round" stroke-linejoin="round"/>
<path d="M625.77 692.21V634.03" stroke="black" stroke-width="14.19" stroke-linecap="round" stroke-linejoin="round"/>
<path d="M206.73 21C230 7.52998 252.57 3.07998 257.19 11.05L504.3 419.34H384.47L173 59.8C168.36 51.83 183.47 34.46 206.73 21Z" fill="#AE8B8A" stroke="black" stroke-width="14.19" stroke-linecap="round" stroke-linejoin="round"/>
<path d="M283.301 278.895L397.942 212.52C408.644 206.324 412.296 192.626 406.1 181.925L339.725 67.2833C333.529 56.5819 319.831 52.9294 309.13 59.1253L194.488 125.5C183.787 131.696 180.135 145.394 186.33 156.096L252.706 270.737C258.901 281.439 272.599 285.091 283.301 278.895Z" fill="#E8D0D0" stroke="black" stroke-width="14.19" stroke-linecap="round" stroke-linejoin="round"/>
<path d="M403.54 177.4C403.54 177.4 513.18 111.31 676.64 77.82C678.579 77.4245 680.38 76.5235 681.859 75.2081C683.338 73.8927 684.443 72.2097 685.062 70.3296C685.682 68.4496 685.793 66.4392 685.385 64.5023C684.977 62.5654 684.065 60.7707 682.74 59.3C662.24 36.56 589.59 -3.65 503.31 9.78001C420.9 22.6 340.57 69.15 340.57 69.15L403.54 177.4Z" fill="#E8D0D0" stroke="black" stroke-width="14.19" stroke-linecap="round" stroke-linejoin="round"/>
<path d="M252.34 270.31C252.34 270.31 140.73 333 30.9001 458.64C29.5964 460.129 27.9227 461.247 26.0482 461.882C24.1737 462.517 22.1648 462.645 20.2246 462.255C18.2845 461.864 16.4819 460.968 14.9991 459.657C13.5163 458.347 12.4059 456.668 11.7801 454.79C2.14011 425.74 3.00011 342.71 57.3101 274.31C109.15 208.97 189.31 162.1 189.31 162.1L252.34 270.31Z" fill="#E8D0D0" stroke="black" stroke-width="14.19" stroke-linecap="round" stroke-linejoin="round"/>
<path d="M203.95 58.44L188.69 33.51" stroke="black" stroke-width="14.19" stroke-linecap="round" stroke-linejoin="round"/>
<path d="M231.78 103.9L215.34 77.04" stroke="black" stroke-width="14.19" stroke-linecap="round" stroke-linejoin="round"/>
<path d="M377.98 342.76L325.25 256.6" stroke="black" stroke-width="14.19" stroke-linecap="round" stroke-linejoin="round"/>
<path d="M391.77 365.29L385.65 355.29" stroke="black" stroke-width="14.19" stroke-linecap="round" stroke-linejoin="round"/>
<path d="M424.86 419.34L407.06 390.26" stroke="black" stroke-width="14.19" stroke-linecap="round" stroke-linejoin="round"/>
</g>
<defs>
<clipPath id="clip0_1278_2">
<rect width="902.42" height="1030.73" fill="white"/>
</clipPath>
</defs>
</svg>
