<svg id="Camada_1" data-name="Camada 1" xmlns="http://www.w3.org/2000/svg" viewBox="0 0 888.23 1014.69"><path d="M248,448.3H196.59a29.21,29.21,0,0,0-29.18,29.17v29.58a29.2,29.2,0,0,0,29.18,29.17H248a29.2,29.2,0,0,0,29.18-29.17V477.47A29.21,29.21,0,0,0,248,448.3Zm15.21,58.75A15.23,15.23,0,0,1,248,522.26H196.59a15.23,15.23,0,0,1-15.21-15.21V477.47a15.22,15.22,0,0,1,15.21-15.2H248a15.22,15.22,0,0,1,15.21,15.2Z"/><path d="M596.31,448.3H363.83a26.6,26.6,0,0,0-26.57,26.57v34.79a26.59,26.59,0,0,0,26.57,26.56,7,7,0,0,0,0-14,12.62,12.62,0,0,1-12.6-12.6V474.87a12.61,12.61,0,0,1,12.6-12.6H596.31a12.61,12.61,0,0,1,12.6,12.6v34.79a12.62,12.62,0,0,1-12.6,12.6H434.51a7,7,0,1,0,0,14h161.8a26.59,26.59,0,0,0,26.57-26.56V474.87A26.6,26.6,0,0,0,596.31,448.3Z"/><path d="M248,580.17H196.59a29.2,29.2,0,0,0-29.18,29.17v29.57a29.21,29.21,0,0,0,29.18,29.18H248a29.21,29.21,0,0,0,29.18-29.18V609.34A29.2,29.2,0,0,0,248,580.17Zm15.21,58.74A15.22,15.22,0,0,1,248,654.12H196.59a15.22,15.22,0,0,1-15.21-15.21V609.34a15.23,15.23,0,0,1,15.21-15.21H248a15.23,15.23,0,0,1,15.21,15.21Z"/><path d="M417.85,580.17H366.44a29.2,29.2,0,0,0-29.18,29.17v29.57a29.21,29.21,0,0,0,29.18,29.18h51.41A29.21,29.21,0,0,0,447,638.91V609.34A29.2,29.2,0,0,0,417.85,580.17Zm15.21,58.74a15.22,15.22,0,0,1-15.21,15.21H366.44a15.22,15.22,0,0,1-15.21-15.21V609.34a15.23,15.23,0,0,1,15.21-15.21h51.41a15.23,15.23,0,0,1,15.21,15.21Z"/><path d="M248,712H196.59a29.21,29.21,0,0,0-29.18,29.17v29.58A29.2,29.2,0,0,0,196.59,800H248a29.2,29.2,0,0,0,29.18-29.17V741.2A29.21,29.21,0,0,0,248,712Zm15.21,58.75A15.22,15.22,0,0,1,248,786H196.59a15.22,15.22,0,0,1-15.21-15.2V741.2A15.22,15.22,0,0,1,196.59,726H248a15.22,15.22,0,0,1,15.21,15.2Z"/><path d="M539.46,259.6h22.88a7,7,0,1,0,0-14H539.46a7,7,0,1,0,0,14Z"/><path d="M798.63,845.34c-2.51.42-5,.75-7.53,1a5.81,5.81,0,0,0,.57,11.6,5.62,5.62,0,0,0,.58,0q4.17-.42,8.31-1.11a5.82,5.82,0,0,0-1.93-11.47Z"/><path d="M527.05,781.44q-3.75.63-7.52,1a5.81,5.81,0,0,0,.56,11.6l.57,0c2.78-.27,5.56-.64,8.32-1.1a5.82,5.82,0,0,0,4.77-6.7A5.89,5.89,0,0,0,527.05,781.44Z"/><path d="M771.37,845.32a110.43,110.43,0,0,1-36.88-13.26,112.33,112.33,0,0,1-23.1-17.75,5.81,5.81,0,0,0-8.22,8.22,123.68,123.68,0,0,0,25.51,19.6,122.13,122.13,0,0,0,40.74,14.65,5.5,5.5,0,0,0,1,.09,5.82,5.82,0,0,0,1-11.55Z"/><path d="M500.44,781.89A41.54,41.54,0,0,1,459,740.4a5.82,5.82,0,0,0-11.63,0,53.17,53.17,0,0,0,53.11,53.11,5.81,5.81,0,1,0,0-11.62Z"/><path d="M406.58,536.22a7,7,0,0,0,0-14H389.51a7,7,0,1,0,0,14Z"/><path d="M373.55,353.4l6,9.85A7,7,0,1,0,391.49,356l-6-9.84a7,7,0,0,0-11.92,7.28Z"/><path d="M881.24,686.77a7,7,0,1,0,0-14A70.84,70.84,0,0,1,810.49,602a7,7,0,1,0-14,0A70.53,70.53,0,0,1,776,651.7c-11-12.52-24.71-26.63-40.23-37.6a70.53,70.53,0,0,1,49.22-20,7,7,0,0,0,0-14,70.85,70.85,0,0,1-70.76-70.77,7,7,0,0,0-14,0,70.42,70.42,0,0,1-19.65,48.8V259.42a80.61,80.61,0,0,0-80.52-80.52H407.22c-.22-.54-.48-1.05-.73-1.57,24.28-13.56,123.68-65.77,260.88-93.87a18.05,18.05,0,0,0,9.79-29.76c-19.68-21.82-93-64.94-182.9-51-69.73,10.86-136.77,45.15-156.73,56a29.06,29.06,0,0,0-36.85-6.59L290,58.37,259,7.32c-2.72-4.63-9.35-9.44-25.3-6.31-10.12,2-22.15,6.84-33.87,13.62a133.56,133.56,0,0,0-18.61,12.94c-.17.14-.35.27-.51.43-13.61,11.51-22.31,24.6-16.62,34.42l30.18,51.31-6.49,3.76a29.07,29.07,0,0,0-10.7,39.44c-19,11.8-82.28,53.27-126.31,108.77C-5.71,336.92-4.43,422,4.83,449.92a17.86,17.86,0,0,0,13.56,12,18.25,18.25,0,0,0,3.66.37,17.82,17.82,0,0,0,13.49-6.18c21.24-24.29,44.14-47.82,68.1-70.26V789.27a80.51,80.51,0,0,0,1.74,16.62v13.19a78.86,78.86,0,0,0,78.77,78.77h78.59a48.38,48.38,0,0,0,4,40.16,50.31,50.31,0,0,0,44.13,25.78h65.78a70.6,70.6,0,0,1,15.43,43.91,7,7,0,1,0,14,0,70.63,70.63,0,0,1,15.44-43.91h99.46a87.68,87.68,0,0,0,63.12-27.1H715.42c22.09,0,43.08-10.2,57.59-28a21.89,21.89,0,0,1,5.51-5.11c8-4.81,11.77-4.65,17.52-4.39a55.44,55.44,0,0,0,13.22-.61c45.66-8,73.23-40.14,73.77-85.88.31-26.25-14.53-46.09-28.88-65.28l-2.83-3.79c-7.3-9.83-15.38-20.12-24.49-31.21A70.9,70.9,0,0,1,881.24,686.77Zm-77.74-51a85.27,85.27,0,0,0,44.13,44.08,85.15,85.15,0,0,0-29.8,21.71l-.16-.19-1.42,2c-1.34,1.61-2.64,3.26-3.87,5a85.27,85.27,0,0,0-8.86,15.59,85.29,85.29,0,0,0-44.1-44.1,84.38,84.38,0,0,0,20.78-12.85c1.6-1.34,3.12-2.75,4.6-4.19l.46-.38,0,0A84.71,84.71,0,0,0,803.5,635.73ZM351.23,762.8V741.2A15.22,15.22,0,0,1,366.44,726h27.31c-3.87,3.44-7.76,6.87-11.63,10.26-2.82,2.46-5.71,5-8.63,7.49l-2.89,2.49-6.24,5.37L361,754.5c-1.91,1.64-3.89,3.31-5.86,5Zm175.85-77.73v-60.9a30.07,30.07,0,0,1,30-30h21.76a30.08,30.08,0,0,1,30,30v54.06c-.77.37-1.47.83-2.23,1.23-1.21.64-2.41,1.29-3.58,2-1.44.84-2.83,1.74-4.2,2.66-1.12.75-2.23,1.51-3.31,2.31-1.33,1-2.6,2-3.86,3.11-1,.85-2,1.71-3,2.62-1.22,1.13-2.37,2.34-3.53,3.55-.9,1-1.83,1.9-2.7,2.91-1.11,1.29-2.15,2.67-3.2,4-.79,1-1.61,2-2.35,3.13-1,1.48-2,3.06-2.93,4.63-.65,1.08-1.34,2.11-2,3.23-1,1.8-1.88,3.7-2.77,5.59-.46,1-1,1.93-1.42,2.94-1.28,3-2.44,6-3.48,9.19-.37-1.3-.76-2.59-1.16-3.85-.14-.44-.3-.86-.44-1.29-.28-.82-.56-1.65-.85-2.45-.18-.5-.38-1-.57-1.47-.28-.72-.56-1.45-.85-2.16-.22-.51-.44-1-.67-1.52-.29-.67-.58-1.34-.9-2s-.5-1-.75-1.51-.63-1.27-1-1.88-.55-1-.83-1.49-.69-1.21-1-1.8-.61-1-.92-1.44-.76-1.16-1.16-1.73-.65-.92-1-1.38-.83-1.11-1.27-1.66-.71-.89-1.08-1.33-.91-1.07-1.38-1.59-.77-.85-1.16-1.26-1-1-1.54-1.55-.8-.79-1.22-1.18-1.13-1-1.71-1.51c-.42-.36-.84-.73-1.28-1.09-.62-.5-1.26-1-1.91-1.48-.43-.33-.86-.67-1.32-1-.7-.51-1.45-1-2.19-1.49-.43-.28-.84-.57-1.28-.85-.86-.54-1.77-1.06-2.68-1.58-.35-.21-.69-.42-1-.62-1.24-.68-2.53-1.35-3.86-2l-.14-.08Zm180.2-142a85.24,85.24,0,0,0,44.05,44,84.84,84.84,0,0,0-44,44,85.73,85.73,0,0,0-44.07-44A85.22,85.22,0,0,0,707.28,543.09Zm-40.6-283.67V567.91a7.33,7.33,0,0,0,.17,1.5,70.16,70.16,0,0,1-37.31,10.76,7,7,0,0,0,0,14,70.11,70.11,0,0,1,37.14,10.63v7.81c-6.91,7.17-13.84,18.16-20.64,32.73-5.54,11.87-13.63,21-23.16,26.51V624.17a44,44,0,0,0-44-44H557.11a44,44,0,0,0-44,44v55.52c-26.07-8.42-45.5-9.12-59.18-2l-3.6,1.84c-7.21,3.66-14.68,7.45-21.14,13.91-4.17,4.15-8.51,8.2-13.35,12.69-1.93,1.78-3.88,3.53-5.82,5.28l-.7.64H366.44a29.21,29.21,0,0,0-29.18,29.17v29.58a25.74,25.74,0,0,0,.29,3.56l-1.19,1c-4.94,4.17-9.89,8.34-14.88,12.45l-1.83,1.51c-1.79,1.49-3.58,3-5.45,4.38-13.07,9.82-27.88,20.94-37.16,36.65-4.84,8.2-3.09,17.21-.75,25.49H184.15a66.62,66.62,0,0,1-66.54-66.55V372.88l1.24-1.12c3.29-3,6.56-5.87,9.79-8.69l.39-.35q5-4.37,9.9-8.52l2-1.66q4.74-4,9.37-7.84l1.59-1.31c2.6-2.13,5.15-4.21,7.69-6.25v43.44a42.61,42.61,0,0,0,42.56,42.56H587.53a42.61,42.61,0,0,0,42.57-42.56V288.19a42.61,42.61,0,0,0-42.57-42.56,7,7,0,0,0,0,14,28.63,28.63,0,0,1,28.6,28.59v92.39a28.62,28.62,0,0,1-28.6,28.59H502.27L411.74,259.6h100.6a7,7,0,1,0,0-14H403.28l-15.73-26,7.55-4.37a29.08,29.08,0,0,0,3.39-2.34c.34-.27.65-.56,1-.84a25.73,25.73,0,0,0,2.07-2c.32-.33.62-.66.92-1a30.31,30.31,0,0,0,1.9-2.49c.17-.25.36-.48.52-.73a28.45,28.45,0,0,0,1.9-3.47c.15-.33.27-.68.42-1,.37-.91.71-1.83,1-2.77.13-.44.25-.87.36-1.3a28.57,28.57,0,0,0,.57-2.9c.06-.37.13-.74.17-1.12,0-.15.06-.29.07-.44H600.13A66.62,66.62,0,0,1,666.68,259.42ZM181.73,319.78q4-3,7.79-5.84l1-.71q4-2.94,7.73-5.65l1.48-1.07c2.47-1.78,4.88-3.5,7.2-5.14l.79-.55q3.24-2.28,6.29-4.39l1.16-.8q3.12-2.14,6-4.09l1.43-1c1.87-1.26,3.69-2.48,5.41-3.6l.72-.47c1.5-1,2.93-1.92,4.31-2.81l1.38-.89,3.82-2.43,1.65-1,2-1.24,2.93-1.8.65-.4,1-.63c.12.13.27.22.39.35a29.5,29.5,0,0,0,2.88,2.61c.15.12.28.26.44.37a29.66,29.66,0,0,0,3.68,2.34c.39.21.79.38,1.18.57a30.81,30.81,0,0,0,2.85,1.21c.48.17,1,.33,1.44.47a28.25,28.25,0,0,0,3,.73c.42.08.83.18,1.26.25a30.09,30.09,0,0,0,4.13.31h.16c.3,0,.6,0,.9-.05a31.32,31.32,0,0,0,3.47-.33c.49-.08,1-.19,1.45-.29a29.68,29.68,0,0,0,3-.82c.45-.15.89-.28,1.34-.45a29.25,29.25,0,0,0,4.14-1.94l7.62-4.42,78.23,133h-166a28.62,28.62,0,0,1-28.59-28.59V326.1c2.41-1.87,4.81-3.72,7.14-5.5C181,320.33,181.37,320.06,181.73,319.78Zm302.18,86.05H422l-15.48-25.29a7,7,0,0,0-11.92,7.3l11,18h-23.3L302,269.18l5.89-3.41,8.9-5.15,44.76,73.13a7,7,0,0,0,11.92-7.3l-44.58-72.83,46.61-27Zm12.5-389.3C576,4.17,646.64,40.72,666.78,63.06a4.07,4.07,0,0,1-2.22,6.71C525.81,98.2,424.94,151.05,399.67,165.14l-8.29-14.26L344.93,70.65C365.08,59.83,430.51,26.79,496.41,16.53Zm-290,90.21-30.08-51c-.2-1.6,2.17-6.06,7.77-11.82l10.59,17.3a7,7,0,1,0,11.92-7.3L194.81,34.63a125.19,125.19,0,0,1,12.06-7.91C224,16.83,237.05,14,243.37,14a7.83,7.83,0,0,1,3.75.64l30.74,50.78L230.43,92.82,217.8,72.2a7,7,0,1,0-11.91,7.29l12.44,20.34-9.93,5.75Zm-11.58,22.85,14.2-8.22,22.66-13.12h0L291,73.89h0l16.64-9.63a15,15,0,0,1,20.57,5.48l.21.36a6.62,6.62,0,0,0,.63,1.51l50.22,86.32,14.28,24.67a14.83,14.83,0,0,1,1.64,4.62h0a15.65,15.65,0,0,1,.2,4.2c0,.17,0,.35,0,.53s-.08.39-.11.58a15.09,15.09,0,0,1-3.59,7.7,14.81,14.81,0,0,1-3.61,2.94L275.25,268.5A15.07,15.07,0,0,1,254.67,263L189.33,150.16A15.08,15.08,0,0,1,194.82,129.59ZM25,446.91a4.08,4.08,0,0,1-6.93-1.4c-19.21-57.84,19-140,43.66-171.13,41.57-52.38,102.83-93,122-105.11l11.72,20.13h0l43.24,74.23c-17.5,10.61-70.62,44.55-132.81,101A1002.8,1002.8,0,0,0,25,446.91Zm374,527.19a85.59,85.59,0,0,0-5.38-10.31h1.23l-5.34-6.2q-1.92-2.61-4.05-5.09A84.94,84.94,0,0,0,355,930a85.25,85.25,0,0,0,44.09-44.07A85.23,85.23,0,0,0,443.13,930a85,85,0,0,0-30.54,22.53q-2.13,2.47-4,5.09l-5.34,6.2h1.23A85.59,85.59,0,0,0,399.05,974.1Zm36.52-23.77a70.44,70.44,0,0,1,41.22-13.39,7,7,0,1,0,0-14,70.82,70.82,0,0,1-70-61.08s0,0,0,0c-.21-1.55-.35-2.94-.47-4.3-.13-1.77-.27-3.54-.27-5.35a7,7,0,0,0-14,0c0,1.81-.13,3.59-.27,5.36-.12,1.36-.25,2.74-.46,4.28a70.83,70.83,0,0,1-70,61.13,7,7,0,1,0,0,14,70.41,70.41,0,0,1,41.21,13.39H310.85a37,37,0,0,1-32.43-19C272,920,271.88,906.8,278.24,896a34.84,34.84,0,0,1,2.24-3.49,36.94,36.94,0,0,1,6.28-6.47c8.72-7.08,7.12-17.45,5.76-23.18a6.67,6.67,0,0,0-.2-1.83c-.48-1.88-1.05-3.8-1.62-5.74-2.09-7.08-4.07-13.77-1.63-17.89,7.86-13.32,20.91-23.12,33.52-32.59,2-1.53,4-3.17,6-4.8l1.77-1.47c5-4.14,10-8.35,15-12.56l4.37-3.68c15.35-12.91,28.95-24.55,41.56-35.56,8.5-7.42,17-15,25.4-22.59l2.67-2.42c2-1.8,4-3.59,5.95-5.41,4.95-4.59,9.4-8.73,13.74-13.06,4.9-4.89,10.78-7.88,17.59-11.33l3.71-1.9c10.54-5.47,27.8-4.19,51.35,3.81,2,.68,3.88,1.4,5.69,2.16,24.7,10.32,32.24,27.67,36.9,54.16a42.6,42.6,0,0,1,.42,10.22,43.08,43.08,0,0,0,.67,11.68h-.46l1.13,2.56a42.38,42.38,0,0,0,3,7.3s0,0,.05.07a.84.84,0,0,0,.06.14,27.57,27.57,0,0,0,1.58,2.65c.06.08.09.15.14.23.33.48.7,1,1.08,1.49.1.12.16.23.26.36a6.28,6.28,0,0,0,.62.64c.15.22.27.44.44.65.74.87,1.51,1.72,2.33,2.54h0l0,0,0,0s0,0,0,0h0l.28.28c.13.13.3.17.43.28s.25.29.38.43.07.13.12.18l.23.22c1.08,1,2.2,1.95,3.38,2.88.07,0,.15.06.21.11s.22.24.35.34c.46.35.92.7,1.4,1l2,1.39h0c.34.24.66.49,1,.73a7,7,0,0,0,1.61.78c1.13.76,2.26,1.52,3.41,2.27,1.62,1.07,3.24,2.14,4.83,3.23a23.83,23.83,0,0,1,4.42,3.95,24.14,24.14,0,0,1,5.88,16.36l0,2.73c0,.27,0,.49,0,.76v.69h0v.2h-.25l0,1.64v.15a6.45,6.45,0,0,0,.12,1.17,6.18,6.18,0,0,0-.16,1.23l0,2.79v.1a5.8,5.8,0,0,0,.07.74,7.89,7.89,0,0,0-.1.85v.07C595,844,595,850.29,595,856.94c0,.11,0,.21,0,.32s0,.21,0,.31v5.14a7,7,0,0,0,.25,1.78c0,3.54,0,7.11,0,10.76a70.34,70.34,0,0,1-.38,7.76c0,.18,0,.35-.07.53-.27,2.48-.66,5-1.19,7.5l-.18.81a77.42,77.42,0,0,1-2.35,8.33l-.15.46c-.43,1.22-.92,2.42-1.41,3.61-.26.64-.54,1.27-.82,1.9-.47,1.06-1,2.12-1.47,3.16-.77,1.52-1.58,3-2.46,4.5-.39.66-.81,1.28-1.22,1.92-.73,1.15-1.48,2.29-2.28,3.4-.39.55-.79,1.09-1.19,1.63-1.22,1.61-2.48,3.19-3.84,4.71a74.31,74.31,0,0,1-55.31,24.86ZM843.37,755.5c13.6,18.18,26.45,35.36,26.19,57-.46,39.33-23.29,65.85-62.64,72.78a43.08,43.08,0,0,1-10.27.42c-6.68-.3-13.59-.61-25.08,6.31a34.58,34.58,0,0,0-9,8.13c-11.94,14.64-29.12,23-47.15,23H594.82c.36-.57.67-1.17,1-1.74s.71-1.18,1-1.77c.71-1.23,1.39-2.47,2-3.73l.52-1q1.13-2.25,2.12-4.54l0-.07a87.59,87.59,0,0,0,6.55-25c.07-.63.13-1.27.19-1.9.09-1,.17-2,.22-2.93.11-1.81.17-3.61.16-5.39,0-3.63,0-7.18,0-10.7a7.09,7.09,0,0,0,.24-1.74v-5.13c0-.1,0-.2,0-.3a2.77,2.77,0,0,0,0-.3c0-6.63.08-12.86.15-18.46v-.1a5.82,5.82,0,0,0-.07-.73,6,6,0,0,0,.09-.84l0-2.72a7.42,7.42,0,0,0-.1-1.34,7.6,7.6,0,0,0,.14-1.19l0-1.72H609l.06-4.26v-.05h0a37.43,37.43,0,0,0-16.13-31.66l-.19-.13c-1.6-1.1-3.24-2.18-4.88-3.26l-.71-.47-2.48-1.66h0a7.24,7.24,0,0,0-1.33-1.19c-.31-.21-.59-.44-.9-.65h0l-.08-.06,0,0-.29-.21c-.83-.59-1.66-1.17-2.45-1.78l-.19-.11c-.09-.08-.16-.17-.25-.25h0c-.87-.69-1.7-1.39-2.49-2.12l-.08-.07c-.14-.12-.29-.21-.44-.32a4.42,4.42,0,0,0-.39-.47,25.61,25.61,0,0,1-1.74-1.89,5.1,5.1,0,0,0-.47-.46c-.07-.11-.13-.23-.21-.34v0l-.07-.09c-.23-.31-.42-.58-.61-.86s-.26-.41-.39-.62a121.46,121.46,0,0,1,4.5-37.74q.75-2.58,1.59-5c.65-1.88,1.39-3.76,2.18-5.64.28-.66.56-1.33.85-2,1-2.26,2.14-4.51,3.39-6.73l.3-.52a77.47,77.47,0,0,1,4.26-6.63l.44-.6a67.09,67.09,0,0,1,4.6-5.61c.44-.49.87-1,1.32-1.44,1.17-1.22,2.41-2.4,3.69-3.55,1.06-.94,2.14-1.86,3.25-2.74.76-.59,1.53-1.18,2.32-1.75,1.73-1.23,3.51-2.41,5.37-3.49.53-.31,1.08-.61,1.63-.91,2.15-1.17,4.34-2.29,6.66-3.27l.07,0,.88-.38c.64-.27,1.28-.55,1.93-.8,15.73-5.93,29-19,37.27-36.76,6.67-14.29,13.47-24.86,19.69-30.56a7,7,0,0,0,1.05-1.25c.28-.24.55-.51.84-.72.53-.4,1.1-.77,1.68-1.13a70,70,0,0,1,18.34,47.34,7,7,0,1,0,14,0A70.81,70.81,0,0,1,727,624.38c14.74,10.22,28,23.84,38.69,36a70.73,70.73,0,0,1-40,12.44,7,7,0,1,0,0,14,70.83,70.83,0,0,1,70.76,70.75,7,7,0,1,0,14,0,70.07,70.07,0,0,1,8.5-33.43c7.94,9.75,15,18.83,21.52,27.58Z"/></svg>