<svg id="Camada_1" data-name="Camada 1" xmlns="http://www.w3.org/2000/svg" viewBox="0 0 1021.69 966.83"><defs><style>.cls-1,.cls-11,.cls-12,.cls-3{fill:none;}.cls-1{stroke:#fff;stroke-miterlimit:10;stroke-width:21.69px;}.cls-2{fill:#e8d0d0;}.cls-10,.cls-11,.cls-12,.cls-2,.cls-3,.cls-4,.cls-5,.cls-6,.cls-7,.cls-8,.cls-9{stroke:#000;stroke-linecap:round;stroke-linejoin:round;}.cls-12,.cls-2,.cls-4,.cls-9{stroke-width:13.5px;}.cls-10,.cls-3{stroke-width:15.01px;}.cls-4{fill:#ae8b8a;}.cls-10,.cls-5,.cls-6,.cls-7{fill:#69a55a;}.cls-11,.cls-5{stroke-width:12.97px;}.cls-6{stroke-width:9.15px;}.cls-7{stroke-width:11.24px;}.cls-8{stroke-width:10.12px;}.cls-9{fill:#f8e9e9;}</style></defs><path class="cls-1" d="M286.06,128.42a6.75,6.75,0,0,0,6.75-6.74V47.63a6.75,6.75,0,1,0-13.5,0v74.05A6.75,6.75,0,0,0,286.06,128.42Z"/><path class="cls-1" d="M70.17,265.47h74a6.75,6.75,0,0,0,0-13.5h-74a6.75,6.75,0,1,0,0,13.5Z"/><path class="cls-1" d="M181,163.19a6.75,6.75,0,0,0,9.54-9.55l-52.36-52.36a6.75,6.75,0,1,0-9.54,9.55Z"/><path class="cls-1" d="M336.56,138.61a6.66,6.66,0,0,0,2.61.53,6.75,6.75,0,0,0,6.22-4.14l28.7-68.26a6.75,6.75,0,0,0-12.44-5.23L333,129.77A6.75,6.75,0,0,0,336.56,138.61Z"/><path class="cls-1" d="M152.17,306.06,83.61,334a6.75,6.75,0,0,0,2.56,13,6.68,6.68,0,0,0,2.54-.5l68.56-28a6.75,6.75,0,0,0-5.1-12.5Z"/><path class="cls-1" d="M84.43,181.27l28.84,12.12a6.69,6.69,0,0,0,2.61.53,6.75,6.75,0,0,0,2.62-13L89.66,168.82a6.75,6.75,0,0,0-5.23,12.45Z"/><path class="cls-1" d="M157.91,197.52l-6.34-2.66a6.75,6.75,0,1,0-5.23,12.44l6.34,2.66a6.75,6.75,0,1,0,5.23-12.44Z"/><path class="cls-1" d="M206.1,80.62a6.75,6.75,0,0,0,12.5-5.1l-7.86-19.25a6.75,6.75,0,1,0-12.49,5.1Z"/><path class="cls-1" d="M214,100.07l12.18,29.86a6.75,6.75,0,0,0,12.5-5.1L226.54,95a6.75,6.75,0,0,0-12.5,5.1Z"/><path class="cls-1" d="M117,491.25a119.17,119.17,0,0,0-13.49,20.43,5.62,5.62,0,1,0,10,5.19,107.89,107.89,0,0,1,12.22-18.5,5.62,5.62,0,0,0-8.69-7.12Z"/><path class="cls-1" d="M208.81,447.75a118.29,118.29,0,0,0-68.67,21.86,5.62,5.62,0,0,0,6.51,9.17,106.55,106.55,0,0,1,34.25-16.13A107.71,107.71,0,0,1,208.81,459a5.62,5.62,0,1,0,0-11.24Z"/><path class="cls-1" d="M382.29,524H332.61a28.21,28.21,0,0,0-28.18,28.18v28.58A28.22,28.22,0,0,0,332.61,609h49.68a28.22,28.22,0,0,0,28.19-28.19V552.18A28.21,28.21,0,0,0,382.29,524ZM397,580.76a14.72,14.72,0,0,1-14.7,14.69H332.61a14.7,14.7,0,0,1-14.68-14.69V552.18a14.7,14.7,0,0,1,14.68-14.69h49.68A14.72,14.72,0,0,1,397,552.18Z"/><path class="cls-1" d="M718.84,524H494.21a25.69,25.69,0,0,0-25.67,25.66v33.62A25.7,25.7,0,0,0,494.21,609a6.75,6.75,0,1,0,0-13.5A12.18,12.18,0,0,1,482,583.28V549.66a12.18,12.18,0,0,1,12.17-12.17H718.84A12.18,12.18,0,0,1,731,549.66v33.62a12.18,12.18,0,0,1-12.17,12.17h-166a6.75,6.75,0,0,0,0,13.5h166a25.7,25.7,0,0,0,25.67-25.67V549.66A25.7,25.7,0,0,0,718.84,524Z"/><path class="cls-1" d="M382.29,651.41H332.61a28.21,28.21,0,0,0-28.18,28.18v28.58a28.22,28.22,0,0,0,28.18,28.19h49.68a28.22,28.22,0,0,0,28.19-28.19V679.59A28.21,28.21,0,0,0,382.29,651.41ZM397,708.17a14.72,14.72,0,0,1-14.7,14.69H332.61a14.7,14.7,0,0,1-14.68-14.69V679.59a14.7,14.7,0,0,1,14.68-14.69h49.68A14.72,14.72,0,0,1,397,679.59Z"/><path class="cls-1" d="M546.41,651.41H496.73a28.21,28.21,0,0,0-28.19,28.18v28.58a28.22,28.22,0,0,0,28.19,28.19h49.68a28.23,28.23,0,0,0,28.19-28.19V679.59A28.22,28.22,0,0,0,546.41,651.41Zm14.69,56.76a14.71,14.71,0,0,1-14.69,14.69H496.73A14.71,14.71,0,0,1,482,708.17V679.59a14.71,14.71,0,0,1,14.69-14.69h49.68a14.71,14.71,0,0,1,14.69,14.69Z"/><path class="cls-1" d="M382.29,778.82H332.61A28.21,28.21,0,0,0,304.43,807v28.58a28.21,28.21,0,0,0,28.18,28.19h49.68a28.21,28.21,0,0,0,28.19-28.19V807A28.21,28.21,0,0,0,382.29,778.82ZM397,835.58a14.72,14.72,0,0,1-14.7,14.69H332.61a14.7,14.7,0,0,1-14.68-14.69V807a14.69,14.69,0,0,1,14.68-14.68h49.68A14.71,14.71,0,0,1,397,807Z"/><path class="cls-1" d="M546.41,778.82H496.73A28.21,28.21,0,0,0,468.54,807v28.58a28.21,28.21,0,0,0,28.19,28.19h49.68a28.22,28.22,0,0,0,28.19-28.19V807A28.22,28.22,0,0,0,546.41,778.82Zm14.69,56.76a14.71,14.71,0,0,1-14.69,14.69H496.73A14.71,14.71,0,0,1,482,835.58V807a14.7,14.7,0,0,1,14.69-14.68h49.68A14.7,14.7,0,0,1,561.1,807Z"/><path class="cls-1" d="M710.36,328.17H403.73a6.75,6.75,0,0,0,0,13.49H710.36A27.67,27.67,0,0,1,738,369.3v89.26a27.67,27.67,0,0,1-27.63,27.63H337.94a27.67,27.67,0,0,1-27.63-27.63V369.3a27.67,27.67,0,0,1,27.63-27.64,6.75,6.75,0,1,0,0-13.49,41.17,41.17,0,0,0-41.12,41.13v89.26a41.17,41.17,0,0,0,41.12,41.13H710.36a41.17,41.17,0,0,0,41.12-41.13V369.3A41.17,41.17,0,0,0,710.36,328.17Z"/><path class="cls-1" d="M614.44,119.6a7.94,7.94,0,1,0,7.94,7.94A7.94,7.94,0,0,0,614.44,119.6Z"/><circle class="cls-1" cx="598.57" cy="111.66" r="7.94"/><path class="cls-1" d="M909,639a8.19,8.19,0,1,0-11.59,0A8.18,8.18,0,0,0,909,639Z"/><path class="cls-1" d="M702,651.41H681a42.56,42.56,0,0,0-42.52,42.51,6.75,6.75,0,0,0,13.5,0,29,29,0,0,1,29-29h21a29.06,29.06,0,0,1,29,29V821.26a29,29,0,0,1-29,29H681a29,29,0,0,1-29-29V757.59a6.75,6.75,0,1,0-13.5,0v63.67A42.56,42.56,0,0,0,681,863.77h21a42.57,42.57,0,0,0,42.52-42.51V693.92A42.57,42.57,0,0,0,702,651.41Z"/><path class="cls-1" d="M645.2,740.16a6.75,6.75,0,0,0,6.75-6.75V717.64a6.75,6.75,0,0,0-13.5,0v15.77A6.75,6.75,0,0,0,645.2,740.16Z"/><path class="cls-1" d="M363,341.66h16.36a6.75,6.75,0,1,0,0-13.49H363a6.75,6.75,0,0,0,0,13.49Z"/><path class="cls-1" d="M533.14,609a6.75,6.75,0,1,0,0-13.5H518.46a6.75,6.75,0,0,0,0,13.5Z"/><path class="cls-1" d="M846.9,489.17h32.84a47.74,47.74,0,0,0,47.68-47.68V396.84a139.86,139.86,0,0,0-48-267.58l-1.31-.07A47.93,47.93,0,0,1,838,103.83a176,176,0,0,0-155.29-93c-44.66,0-92.68,22.85-129.4,61.37a161.07,161.07,0,0,0-60.4-11.7c-68.27,0-126.8,42.33-150.82,102.11A111.2,111.2,0,0,0,199,327.92,139.44,139.44,0,0,0,96.87,434.24c-49.13,7.86-86,51.06-86,101A102.52,102.52,0,0,0,99.53,636.59l.84.06,11.64,0a119.87,119.87,0,0,0,14.24,16.22l.43,41.68a47.74,47.74,0,0,0,47.68,47.68H207.2a2.61,2.61,0,0,1,2.61,2.61v44.7c0,22.64,12,40.18,33,48.8v15.09c0,.47.06.94.07,1.42v25c0,41.25,35.59,76.11,77.72,76.11H722.53c42.89,0,77.78-33.39,77.78-74.44V853.79c0-.11,0-.22,0-.33V822.54c26.89-6,44-25.55,44-52.32v-50l38.24.11h.19c26.88,0,51.71-18.35,61.82-45.73,10.2-27.64,3.42-57.88-17.3-77-14.75-13.64-34.49-19.28-55-15.88a90,90,0,0,0-28-42V491.78A2.61,2.61,0,0,1,846.9,489.17ZM242.81,823.41c-9.48-5.29-19.5-15.28-19.5-33.84v-44.7a16.13,16.13,0,0,0-16.11-16.11H174.36a34.24,34.24,0,0,1-34.19-34.25l-.3-30a118.36,118.36,0,0,0,26,13.85l0,1.44A23.24,23.24,0,0,0,189.14,703h27.42a6.4,6.4,0,0,0,1.76-.26h14.37a6.49,6.49,0,1,0,0-13h-9.38v-3.46h19.5ZM179.69,681.84a199,199,0,0,0,30.12,3.72v4H189.14A9.72,9.72,0,0,1,179.69,681.84Zm63.12-340.35V672.82h-26c-20.29-.57-34-3.33-42-5.52-.09,0-.16-.1-.25-.13a105.77,105.77,0,0,1-37.12-21.82,7.39,7.39,0,0,0-1.25-.84,107.3,107.3,0,0,1-15.51-18,6.46,6.46,0,0,0-5.34-2.83l-14.56,0a89.53,89.53,0,0,1-77-88.46c0-44,32.74-81.93,76.16-88.33a11.34,11.34,0,0,0,3.46-1.13,89.93,89.93,0,0,1,29.11,3.94,4.57,4.57,0,1,0,2.72-8.73,98.58,98.58,0,0,0-25.6-4.35A126.43,126.43,0,0,1,209,339a125.17,125.17,0,0,1,18.15-2.2q2.93-.13,5.88-.14c3.33,0,6.67.13,10,.39C243,338.5,242.81,340,242.81,341.49Zm-9.76-17.86a138.38,138.38,0,0,0-19,1.32A97.77,97.77,0,0,1,337.52,175.58a161.71,161.71,0,0,0-1.85,88.12H320.6a77.89,77.89,0,0,0-75.79,60.49C240.9,323.86,237,323.63,233.05,323.63ZM722.53,917.76H320.6a64.38,64.38,0,0,1-64.3-64.3v-512a64.38,64.38,0,0,1,64.3-64.3h21.64a7.42,7.42,0,0,0,3.1.76H722.53a63.61,63.61,0,0,1,63.54,63.54V400a7,7,0,0,0-.14,1.39l.9,452.09A64.37,64.37,0,0,1,722.53,917.76Zm0-654.82H350.91A147.61,147.61,0,0,1,345.45,223c0-81.33,66.16-147.49,147.49-147.49a146.4,146.4,0,0,1,58.87,12.33,8.33,8.33,0,0,0,1.36.45l.44.1a7.48,7.48,0,0,0,7.27-2.26c34.34-37.75,79.9-60.29,121.86-60.29a161.06,161.06,0,0,1,142.07,85.07,63.06,63.06,0,0,0,18.87,21.55A132.67,132.67,0,0,0,805.56,146a6.19,6.19,0,1,0,5.86,10.9A121,121,0,0,1,856.1,143.1c3.15-.34,6.3-.54,9.45-.64a63.75,63.75,0,0,0,11.86,1.72l1.12.06a124.88,124.88,0,0,1,117,116.39h0a124.79,124.79,0,0,1-114.73,132.8,119,119,0,0,1-17.59.18l-.45,0H801.09v-52.1A78.64,78.64,0,0,0,722.53,262.94ZM874.68,408.79V426.7a9.73,9.73,0,0,1-9.73,9.73H844.29V408.61h18.29c2.76.16,5.53.27,8.33.27C872.11,408.88,873.4,408.83,874.68,408.79ZM830.79,770.22c0,22-14.07,33.63-30.46,38.31v-88.2l30.46.1Zm27.38-189.47A77.51,77.51,0,0,0,821,575a6.49,6.49,0,0,0,1.16,12.92,64.37,64.37,0,0,1,60.14,29.43,6.49,6.49,0,1,0,10.92-7,77.9,77.9,0,0,0-14-16.36c14.78-1.27,28.47,3.17,39.24,13.13,16.85,15.58,22.31,40.32,13.93,63-8.1,21.95-28.51,37.25-49.67,37.25h-.13l-43.25-.13a6.41,6.41,0,0,0-1.76-.27l-37.23-.11V533a76,76,0,0,1,33.07,14.83,6.84,6.84,0,0,0,1.26.72A77.23,77.23,0,0,1,858.17,580.75Zm-27.38-89V529.9a89.2,89.2,0,0,0-30.46-10.55V408.61h30.46v28.08h-15a6.49,6.49,0,0,0,0,13h20a6.48,6.48,0,0,0,1.77.27H865a23.26,23.26,0,0,0,23.23-23.23v-19a139,139,0,0,0,25.74-5.6v39.41a34.22,34.22,0,0,1-34.18,34.19H846.9A16.12,16.12,0,0,0,830.79,491.78Z"/><circle class="cls-2" cx="286.57" cy="256.83" r="104.63"/><line class="cls-2" x1="286.57" y1="45.74" x2="286.57" y2="119.79"/><line class="cls-2" x1="286.57" y1="398.68" x2="286.57" y2="472.73"/><line class="cls-2" x1="435.83" y1="107.57" x2="383.47" y2="159.93"/><line class="cls-2" x1="186.27" y1="357.14" x2="133.91" y2="409.49"/><line class="cls-2" x1="497.66" y1="256.83" x2="423.61" y2="256.83"/><line class="cls-2" x1="144.72" y1="256.83" x2="70.67" y2="256.83"/><line class="cls-2" x1="435.83" y1="406.09" x2="383.47" y2="353.74"/><line class="cls-2" x1="186.27" y1="156.53" x2="133.91" y2="104.17"/><line class="cls-2" x1="368.38" y1="62.24" x2="339.68" y2="130.5"/><line class="cls-2" x1="231.59" y1="387.6" x2="202.9" y2="455.85"/><line class="cls-2" x1="482.01" y1="177.08" x2="413.46" y2="205.06"/><line class="cls-2" x1="155.23" y1="310.42" x2="86.67" y2="338.4"/><line class="cls-2" x1="481.16" y1="338.64" x2="412.9" y2="309.95"/><line class="cls-2" x1="116.39" y1="185.29" x2="87.55" y2="173.16"/><line class="cls-2" x1="155.81" y1="201.86" x2="149.47" y2="199.19"/><line class="cls-2" x1="366.32" y1="452.28" x2="338.34" y2="383.72"/><line class="cls-2" x1="212.86" y1="76.19" x2="205.01" y2="56.94"/><line class="cls-2" x1="232.98" y1="125.5" x2="220.8" y2="95.64"/><path class="cls-3" d="M312.54,367.48c44.56,0,44.56,33.75,89.11,33.75s44.56-33.75,89.11-33.75,44.56,33.75,89.12,33.75,44.56-33.75,89.12-33.75,44.56,33.75,89.11,33.75"/><path class="cls-4" d="M847.41,480.54h32.84a40.94,40.94,0,0,0,40.93-40.94V338.84H881.93v86a16.47,16.47,0,0,1-16.47,16.47H838.05v-41.8H793.18V757a9.94,9.94,0,0,1-9.94,9.94H711.38v48.94h69.08c.66,0,1.31,0,2-.1l-.1.1c30.78,0,55.73-16.8,55.73-47.58V698.77L915,631.58l-21.79-22.15-55.14,45.89V489.9A9.36,9.36,0,0,1,847.41,480.54Z"/><path class="cls-4" d="M133.94,692.69a40.93,40.93,0,0,0,40.93,40.94h32.84a9.36,9.36,0,0,1,9.36,9.36v44.7c0,30.78,25,47.58,55.73,47.58l-.1-.1c.64.06,1.29.1,1.95.1h69.09V786.33H271.87a9.94,9.94,0,0,1-9.94-9.94V629.14l-44.86.26v65H189.65a16.47,16.47,0,0,1-16.47-16.47l-1.69-48.77-38.22-.86Z"/><path class="cls-5" d="M452,450.06c-30.74-21.76-62.29-26.28-89.27-19.39a132.64,132.64,0,0,0-259.22,4.17,4.73,4.73,0,0,1-4,3.75,95.79,95.79,0,0,0,1.36,189.68h0l285.58.87V619.3c73.56,0,127.76-82.9,74.25-160.38A36.06,36.06,0,0,0,452,450.06Z"/><path class="cls-6" d="M134.42,445.48a94.81,94.81,0,0,0-63.75,2.72"/><path class="cls-5" d="M96.22,564.59a113.1,113.1,0,0,0,113.1,113.09h40.74V617.53"/><path class="cls-7" d="M121.81,492.93A112.81,112.81,0,0,0,109,512.39"/><path class="cls-7" d="M209.32,451.49a112.66,112.66,0,0,0-65.41,20.82"/><path class="cls-5" d="M923.35,600.43c-13.57-12.55-33.07-18.68-55.2-13A83.24,83.24,0,0,0,705.47,590a3,3,0,0,1-2.48,2.36,60.11,60.11,0,0,0,.85,119l179.22.54c25.46.08,47.31-18.22,55.9-41.49C948.69,644.11,941.06,616.81,923.35,600.43Z"/><path class="cls-5" d="M888.27,611.93a70.94,70.94,0,0,0-66.17-32.39"/><path class="cls-5" d="M1003.57,258.26c-4.27-66.06-58-119.44-124.08-123.39l-1.22-.07a55.66,55.66,0,0,1-46.34-29.3,168.57,168.57,0,0,0-148.68-89c-49.46,0-96.56,28.83-127.41,62.75-8.37-2-24.8-5.62-33.76-5.62C459.4,73.6,419,119.46,419,182.14a113.2,113.2,0,0,0,5.64,35.35,121.84,121.84,0,0,0,89.93,180.62v1.11H863.31c2.68.16,5.38.27,8.11.27A132.45,132.45,0,0,0,1003.57,258.26Z"/><rect class="cls-8" x="250.06" y="297.36" width="544.03" height="654.06" rx="71.05"/><rect class="cls-9" x="250.06" y="268.56" width="544.03" height="654.06" rx="71.05"/><rect class="cls-2" x="311.68" y="528.86" width="92.56" height="71.46" rx="21.44"/><path class="cls-2" d="M494.72,600.31a19,19,0,0,1-18.92-18.92V547.78a19,19,0,0,1,18.92-18.92H719.35a19,19,0,0,1,18.92,18.92v33.61a19,19,0,0,1-18.92,18.92H553.3"/><rect class="cls-2" x="311.68" y="656.27" width="92.56" height="71.46" rx="21.44"/><rect class="cls-2" x="475.8" y="656.27" width="92.56" height="71.46" rx="21.44"/><rect class="cls-2" x="311.68" y="783.68" width="92.56" height="71.46" rx="21.44"/><rect class="cls-2" x="475.8" y="783.68" width="92.56" height="71.46" rx="21.44"/><path class="cls-2" d="M645.71,692a35.86,35.86,0,0,1,35.76-35.77h21A35.87,35.87,0,0,1,738.27,692V819.37a35.88,35.88,0,0,1-35.77,35.77h-21a35.87,35.87,0,0,1-35.76-35.77"/><path class="cls-2" d="M404.24,333H710.87a34.49,34.49,0,0,1,34.38,34.38v89.26a34.49,34.49,0,0,1-34.38,34.38H338.45a34.48,34.48,0,0,1-34.38-34.38V367.41A34.48,34.48,0,0,1,338.45,333"/><path class="cls-10" d="M580.1,92.61a155.06,155.06,0,0,0-234.25,176H447.92"/><circle cx="903.7" cy="631.36" r="8.19"/><line class="cls-11" x1="838.05" y1="441.29" x2="816.28" y2="441.29"/><line class="cls-11" x1="217.07" y1="694.38" x2="233.2" y2="694.38"/><line class="cls-12" x1="645.71" y1="819.37" x2="645.71" y2="755.7"/><line class="cls-12" x1="645.71" y1="727.73" x2="645.71" y2="711.95"/><line class="cls-12" x1="379.85" y1="333.03" x2="363.49" y2="333.03"/><line class="cls-12" x1="514.08" y1="600.31" x2="535.24" y2="600.31"/><circle cx="614.44" cy="122.83" r="7.94"/><circle cx="598.57" cy="106.96" r="7.94"/></svg>