<svg id="Camada_1" data-name="Camada 1" xmlns="http://www.w3.org/2000/svg" viewBox="0 0 910.68 1037.13"><defs><style>.cls-1,.cls-5,.cls-9{fill:none;}.cls-1{stroke:#fff;stroke-width:22.45px;}.cls-1,.cls-6{stroke-miterlimit:10;}.cls-10,.cls-2,.cls-3,.cls-4,.cls-5,.cls-6,.cls-7,.cls-8,.cls-9{stroke:#000;}.cls-10,.cls-2,.cls-3,.cls-4,.cls-5,.cls-7,.cls-8,.cls-9{stroke-linecap:round;stroke-linejoin:round;}.cls-2{stroke-width:10.48px;}.cls-3{fill:#f8e9e9;}.cls-10,.cls-3,.cls-4,.cls-5,.cls-7{stroke-width:13.97px;}.cls-4{fill:#e8d0d0;}.cls-6{fill:#f5a148;stroke-width:13.47px;}.cls-7{fill:#fff;}.cls-8{fill:#69a55a;}.cls-8,.cls-9{stroke-width:11.63px;}.cls-10{fill:#ae8b8a;}</style></defs><path class="cls-1" d="M259.23,459.53H207.81a29.2,29.2,0,0,0-29.17,29.17v29.57a29.2,29.2,0,0,0,29.17,29.18h51.42a29.21,29.21,0,0,0,29.17-29.18V488.7A29.2,29.2,0,0,0,259.23,459.53Zm15.2,58.74a15.22,15.22,0,0,1-15.2,15.21H207.81a15.23,15.23,0,0,1-15.21-15.21V488.7a15.22,15.22,0,0,1,15.21-15.2h51.42a15.21,15.21,0,0,1,15.2,15.2Z"/><path class="cls-1" d="M607.53,459.53H375.05a26.58,26.58,0,0,0-26.56,26.56v34.79a26.59,26.59,0,0,0,26.56,26.57,7,7,0,1,0,0-14,12.61,12.61,0,0,1-12.59-12.6V486.09a12.61,12.61,0,0,1,12.59-12.59H607.53a12.61,12.61,0,0,1,12.6,12.59v34.79a12.61,12.61,0,0,1-12.6,12.6H445.73a7,7,0,0,0,0,14h161.8a26.6,26.6,0,0,0,26.57-26.57V486.09A26.59,26.59,0,0,0,607.53,459.53Z"/><path class="cls-1" d="M259.23,591.39H207.81a29.2,29.2,0,0,0-29.17,29.17v29.58a29.2,29.2,0,0,0,29.17,29.17h51.42a29.21,29.21,0,0,0,29.17-29.17V620.56A29.21,29.21,0,0,0,259.23,591.39Zm15.2,58.75a15.22,15.22,0,0,1-15.2,15.2H207.81a15.23,15.23,0,0,1-15.21-15.2V620.56a15.23,15.23,0,0,1,15.21-15.2h51.42a15.22,15.22,0,0,1,15.2,15.2Z"/><path class="cls-1" d="M429.08,591.39H377.66a29.2,29.2,0,0,0-29.17,29.17v29.58a29.2,29.2,0,0,0,29.17,29.17h51.42a29.21,29.21,0,0,0,29.17-29.17V620.56A29.21,29.21,0,0,0,429.08,591.39Zm15.2,58.75a15.22,15.22,0,0,1-15.2,15.2H377.66a15.22,15.22,0,0,1-15.2-15.2V620.56a15.22,15.22,0,0,1,15.2-15.2h51.42a15.22,15.22,0,0,1,15.2,15.2Z"/><path class="cls-1" d="M259.23,723.25H207.81a29.2,29.2,0,0,0-29.17,29.18V782a29.2,29.2,0,0,0,29.17,29.17h51.42A29.21,29.21,0,0,0,288.4,782V752.43A29.21,29.21,0,0,0,259.23,723.25ZM274.43,782a15.22,15.22,0,0,1-15.2,15.2H207.81A15.23,15.23,0,0,1,192.6,782V752.43a15.23,15.23,0,0,1,15.21-15.21h51.42a15.22,15.22,0,0,1,15.2,15.21Z"/><path class="cls-1" d="M550.68,270.82h22.89a7,7,0,0,0,0-14H550.68a7,7,0,0,0,0,14Z"/><path class="cls-1" d="M809.85,856.56q-3.75.63-7.53,1a5.81,5.81,0,0,0,.57,11.6,5.63,5.63,0,0,0,.58,0q4.17-.4,8.31-1.11a5.81,5.81,0,0,0,4.77-6.7A5.87,5.87,0,0,0,809.85,856.56Z"/><path class="cls-1" d="M538.27,792.66c-2.49.42-5,.76-7.52,1a5.81,5.81,0,0,0,.56,11.6,5.43,5.43,0,0,0,.57,0c2.79-.27,5.56-.65,8.32-1.11a5.82,5.82,0,0,0,4.77-6.7A5.89,5.89,0,0,0,538.27,792.66Z"/><path class="cls-1" d="M782.59,856.55a110.77,110.77,0,0,1-60-31,5.82,5.82,0,0,0-8.23,8.23,123.63,123.63,0,0,0,25.51,19.59A122.2,122.2,0,0,0,780.65,868a6.48,6.48,0,0,0,1,.08,5.81,5.81,0,0,0,1-11.54Z"/><path class="cls-1" d="M511.67,793.11a41.53,41.53,0,0,1-41.49-41.48,5.82,5.82,0,1,0-11.63,0,53.18,53.18,0,0,0,53.12,53.11,5.82,5.82,0,0,0,0-11.63Z"/><path class="cls-1" d="M417.8,547.45a7,7,0,0,0,0-14H400.73a7,7,0,0,0,0,14Z"/><path class="cls-1" d="M384.78,364.63l6,9.85a7,7,0,0,0,6,3.34,6.88,6.88,0,0,0,3.63-1,7,7,0,0,0,2.32-9.6l-6-9.85a7,7,0,0,0-11.91,7.29Z"/><path class="cls-1" d="M892.47,698a7,7,0,0,0,0-14,70.84,70.84,0,0,1-70.76-70.76,7,7,0,0,0-14,0,70.49,70.49,0,0,1-20.47,49.66c-11-12.51-24.72-26.62-40.24-37.6a70.54,70.54,0,0,1,49.22-20,7,7,0,1,0,0-14,70.84,70.84,0,0,1-70.76-70.76,7,7,0,1,0-14,0,70.46,70.46,0,0,1-19.65,48.8V270.64a80.6,80.6,0,0,0-80.51-80.51H418.45c-.22-.55-.48-1.06-.73-1.58C442,175,541.39,122.79,678.59,94.68a18,18,0,0,0,9.79-29.75C668.71,43.11,595.33,0,505.49,14,435.76,24.81,368.72,59.1,348.76,70a29.07,29.07,0,0,0-36.86-6.59l-10.73,6.21-30.9-51.05c-2.72-4.63-9.35-9.44-25.31-6.3-10.12,2-22.15,6.83-33.87,13.61a135,135,0,0,0-18.6,12.95,5.43,5.43,0,0,0-.51.42c-13.61,11.52-22.31,24.61-16.63,34.43L205.54,125l-6.49,3.76a29,29,0,0,0-10.7,39.43C169.31,180,106.07,221.43,62,276.93,5.52,348.15,6.8,433.25,16.06,461.14a17.83,17.83,0,0,0,13.56,12,18.16,18.16,0,0,0,3.65.37,17.79,17.79,0,0,0,13.49-6.17C68,443,90.91,419.5,114.86,397.06V800.5a80.58,80.58,0,0,0,1.75,16.62V830.3a78.86,78.86,0,0,0,78.77,78.78H274a48.42,48.42,0,0,0,4,40.16A50.34,50.34,0,0,0,322.07,975h65.79a70.66,70.66,0,0,1,15.43,43.91,7,7,0,0,0,14,0A70.66,70.66,0,0,1,432.69,975h99.47a87.75,87.75,0,0,0,63.12-27.1H726.65c22.09,0,43.08-10.2,57.58-28a22,22,0,0,1,5.51-5.1c8-4.81,11.77-4.65,17.53-4.39a55.91,55.91,0,0,0,13.21-.61c45.66-8,73.24-40.15,73.78-85.89.31-26.25-14.53-46.09-28.88-65.28l-2.83-3.79c-7.3-9.83-15.39-20.11-24.49-31.2A70.89,70.89,0,0,1,892.47,698Zm-77.74-51A85.27,85.27,0,0,0,858.85,691a85,85,0,0,0-29.8,21.7l-.16-.19-1.41,2c-1.35,1.61-2.65,3.27-3.88,5a85.27,85.27,0,0,0-8.86,15.59,85.25,85.25,0,0,0-44.1-44.1,84.58,84.58,0,0,0,20.79-12.84c1.6-1.35,3.12-2.76,4.6-4.2l.45-.38,0,0A84.65,84.65,0,0,0,814.73,647ZM362.46,774V752.43a15.22,15.22,0,0,1,15.2-15.21H405c-3.88,3.44-7.76,6.88-11.64,10.26-2.82,2.46-5.7,5-8.63,7.5l-2.89,2.49-6.24,5.36-3.37,2.89-5.87,5ZM538.3,696.29v-60.9a30.07,30.07,0,0,1,30-30H590.1a30.06,30.06,0,0,1,30,30v54.06c-.77.38-1.47.84-2.22,1.23-1.22.64-2.42,1.3-3.59,2-1.44.84-2.83,1.73-4.2,2.66-1.12.75-2.23,1.5-3.31,2.31-1.32,1-2.59,2-3.86,3.1-1,.86-2,1.71-3,2.62-1.22,1.14-2.37,2.34-3.52,3.56-.91,1-1.84,1.89-2.7,2.9-1.12,1.3-2.16,2.67-3.2,4-.79,1-1.61,2-2.36,3.13-1,1.49-2,3.07-2.92,4.64-.65,1.07-1.35,2.11-2,3.22-1,1.8-1.87,3.7-2.76,5.59-.47,1-1,1.93-1.43,2.95-1.27,3-2.44,6-3.47,9.18-.37-1.3-.76-2.58-1.17-3.85-.14-.43-.29-.86-.44-1.29-.28-.82-.55-1.64-.85-2.45-.18-.49-.37-1-.56-1.46-.28-.73-.56-1.46-.86-2.17-.21-.51-.44-1-.66-1.51-.3-.67-.59-1.35-.9-2s-.5-1-.75-1.52-.64-1.26-1-1.88-.56-1-.84-1.49-.69-1.2-1-1.79-.61-1-.91-1.44-.77-1.16-1.16-1.73-.66-.93-1-1.39-.83-1.11-1.26-1.65-.71-.89-1.08-1.33-.92-1.07-1.39-1.6-.76-.84-1.16-1.26-1-1-1.53-1.55-.81-.79-1.23-1.18-1.12-1-1.7-1.51c-.43-.36-.85-.73-1.29-1.09-.61-.5-1.26-1-1.9-1.47-.44-.34-.87-.67-1.32-1-.71-.5-1.45-1-2.19-1.48-.43-.29-.84-.58-1.28-.85-.87-.54-1.77-1.07-2.68-1.59l-1-.61c-1.25-.69-2.53-1.35-3.86-2l-.15-.07Zm180.21-142a85.21,85.21,0,0,0,44,44.06,84.87,84.87,0,0,0-44,44,85.66,85.66,0,0,0-44.07-44A85.23,85.23,0,0,0,718.51,554.31Zm-40.6-283.67V579.13a6.85,6.85,0,0,0,.17,1.51,70.25,70.25,0,0,1-37.32,10.75,7,7,0,0,0,0,14A70.25,70.25,0,0,1,677.91,616v7.82C671,631,664.06,642,657.26,656.52c-5.54,11.88-13.63,21-23.16,26.51V635.39a44.05,44.05,0,0,0-44-44H568.34a44.05,44.05,0,0,0-44,44v55.52c-26.06-8.41-45.5-9.12-59.18-2l-3.6,1.84c-7.21,3.66-14.67,7.45-21.14,13.91-4.16,4.16-8.51,8.21-13.35,12.69-1.92,1.78-3.87,3.53-5.82,5.29l-.7.63H377.66a29.2,29.2,0,0,0-29.17,29.18V782a25.7,25.7,0,0,0,.28,3.56l-1.18,1c-4.95,4.16-9.89,8.33-14.89,12.44l-1.82,1.52c-1.8,1.48-3.59,3-5.46,4.38-13.06,9.81-27.88,20.94-37.15,36.65-4.85,8.19-3.09,17.2-.75,25.49H195.38a66.63,66.63,0,0,1-66.55-66.55V384.1l1.25-1.12c3.29-3,6.56-5.86,9.78-8.69l.4-.34c3.34-2.92,6.63-5.75,9.89-8.53l2-1.66q4.74-4,9.37-7.84l1.59-1.3c2.6-2.14,5.16-4.21,7.69-6.25V391.8a42.62,42.62,0,0,0,42.57,42.57H598.76a42.61,42.61,0,0,0,42.56-42.57V299.42a42.61,42.61,0,0,0-42.56-42.57,7,7,0,1,0,0,14,28.63,28.63,0,0,1,28.59,28.6V391.8a28.63,28.63,0,0,1-28.59,28.6H513.49L423,270.82H523.57a7,7,0,0,0,0-14H414.51l-15.74-26,7.56-4.38a28.7,28.7,0,0,0,3.39-2.34c.33-.27.65-.55,1-.83q1.08-.94,2.07-2c.31-.33.62-.65.91-1a25.66,25.66,0,0,0,1.91-2.49c.17-.24.36-.47.52-.72a29.94,29.94,0,0,0,1.89-3.47c.16-.34.28-.69.42-1a27.75,27.75,0,0,0,1-2.77c.13-.43.25-.86.36-1.3.24-1,.43-1.92.58-2.9,0-.37.13-.74.17-1.11,0-.15.05-.3.06-.44H611.36A66.62,66.62,0,0,1,677.91,270.64ZM193,331q4-3,7.79-5.84l1-.72q4-2.93,7.72-5.65l1.49-1.07c2.46-1.78,4.88-3.5,7.2-5.14l.78-.55c2.17-1.52,4.26-3,6.3-4.38l1.16-.8c2.08-1.43,4.07-2.79,6-4.09l1.43-1c1.87-1.26,3.7-2.47,5.41-3.6l.72-.47c1.51-1,2.94-1.92,4.31-2.8l1.39-.9q2-1.29,3.81-2.42l1.66-1.05,2-1.23,2.93-1.81.66-.4,1-.63c.12.13.27.23.39.36a28.27,28.27,0,0,0,2.89,2.6c.15.12.28.26.43.37a28,28,0,0,0,3.69,2.35c.38.21.78.37,1.18.56a27.36,27.36,0,0,0,2.85,1.21c.47.17.95.33,1.43.48a28.22,28.22,0,0,0,3,.72c.42.08.84.19,1.26.25a28.64,28.64,0,0,0,4.14.32h.15c.3,0,.6,0,.9-.06a28.89,28.89,0,0,0,3.47-.33c.49-.08,1-.18,1.46-.28a29.56,29.56,0,0,0,3-.83c.45-.15.9-.28,1.34-.45a28.25,28.25,0,0,0,4.14-1.94l7.63-4.41,78.23,133h-166a28.63,28.63,0,0,1-28.6-28.6V337.33c2.41-1.87,4.82-3.73,7.15-5.5Zm302.18,86h-61.9l-15.47-25.29a7,7,0,0,0-11.92,7.3l11,18H393.57L313.19,280.41l5.89-3.41,8.9-5.16L372.74,345a7,7,0,0,0,11.91-7.29l-44.58-72.84,46.61-27ZM507.63,27.76C587.26,15.4,657.87,52,678,74.28A4.09,4.09,0,0,1,675.79,81C537,109.42,436.16,162.28,410.89,176.36l-8.29-14.25L356.15,81.88C376.31,71.05,441.73,38,507.63,27.76Zm-290,90.2-30.08-51c-.2-1.6,2.17-6.06,7.78-11.82l10.59,17.3a7,7,0,0,0,6,3.34,7,7,0,0,0,5.95-10.63L206,45.85A125.23,125.23,0,0,1,218.09,38c17.08-9.9,30.19-12.77,36.51-12.77a7.64,7.64,0,0,1,3.74.64l30.74,50.77-47.43,27.46L229,83.42a7,7,0,0,0-11.92,7.3l12.45,20.33-9.93,5.75ZM206,140.81l14.2-8.22,22.66-13.12h0l59.34-34.35,0,0,16.64-9.63A15.08,15.08,0,0,1,339.48,81l.2.35a7.1,7.1,0,0,0,.63,1.51l50.22,86.32,14.29,24.68a14.67,14.67,0,0,1,1.63,4.61h0a15.26,15.26,0,0,1,.21,4.2c0,.18,0,.36,0,.53s-.08.39-.11.59a15,15,0,0,1-3.59,7.69,14.71,14.71,0,0,1-3.6,2.94L286.48,279.73a15.07,15.07,0,0,1-20.58-5.49L200.56,161.39A15.08,15.08,0,0,1,206,140.81ZM36.25,458.13a4.07,4.07,0,0,1-3.88,1.31,4,4,0,0,1-3-2.7c-19.21-57.85,19-140,43.65-171.13,41.58-52.39,102.83-93.05,122-105.11l11.73,20.13h0L250,274.85c-17.51,10.62-70.62,44.55-132.81,101A1001.17,1001.17,0,0,0,36.25,458.13Zm374,527.2A84.78,84.78,0,0,0,404.9,975h1.22l-5.34-6.2c-1.28-1.74-2.62-3.44-4-5.09a84.88,84.88,0,0,0-30.55-22.53,85.25,85.25,0,0,0,44.08-44.08,85.3,85.3,0,0,0,44.09,44.08,84.88,84.88,0,0,0-30.55,22.53q-2.13,2.47-4.05,5.09l-5.33,6.2h1.22A84.84,84.84,0,0,0,410.27,985.33Zm36.53-23.78A70.48,70.48,0,0,1,488,948.17a7,7,0,0,0,0-14,70.81,70.81,0,0,1-70-61.08v0c-.21-1.55-.35-2.93-.47-4.29-.14-1.78-.27-3.55-.27-5.35a7,7,0,1,0-14,0c0,1.81-.14,3.58-.27,5.36-.12,1.35-.26,2.73-.47,4.27a70.8,70.8,0,0,1-70,61.13,7,7,0,0,0,0,14,70.5,70.5,0,0,1,41.22,13.38H322.07a37,37,0,0,1-32.43-19c-6.47-11.34-6.54-24.53-.18-35.29a35.49,35.49,0,0,1,2.24-3.49A37.36,37.36,0,0,1,298,897.3c8.73-7.07,7.13-17.44,5.76-23.18a7.12,7.12,0,0,0-.19-1.83c-.49-1.88-1.05-3.8-1.63-5.73-2.09-7.09-4.07-13.77-1.63-17.9,7.87-13.31,20.91-23.11,33.52-32.58,2.05-1.54,4-3.17,6-4.81l1.78-1.47c5-4.14,10-8.35,15-12.55l4.38-3.69C376.32,780.65,389.91,769,402.53,758c8.49-7.41,17-15,25.39-22.59L430.6,733c2-1.8,4-3.6,5.95-5.42,4.95-4.58,9.39-8.72,13.73-13.05,4.9-4.9,10.79-7.88,17.6-11.34l3.71-1.9c10.54-5.47,27.8-4.18,51.34,3.81,2,.68,3.89,1.41,5.7,2.16,24.7,10.32,32.23,27.68,36.9,54.16a43.16,43.16,0,0,1,.42,10.22,43.17,43.17,0,0,0,.67,11.69h-.46l1.13,2.56a42,42,0,0,0,3,7.3s0,0,0,.07,0,.1.06.15a28.13,28.13,0,0,0,1.59,2.65c0,.07.08.15.13.22.33.49.71,1,1.09,1.49l.25.37a7.62,7.62,0,0,0,.63.64,6.62,6.62,0,0,0,.44.64c.73.87,1.5,1.72,2.32,2.54h0l0,0,0,0,0,0h0l.29.29c.13.12.29.17.43.28s.24.28.37.42.07.13.12.18l.24.22q1.6,1.49,3.38,2.88a1.39,1.39,0,0,0,.21.11c.12.11.22.24.35.35.45.35.92.69,1.39,1l2,1.4h0l1,.74a7.42,7.42,0,0,0,1.61.77l3.41,2.28c1.63,1.06,3.25,2.13,4.83,3.22a23.83,23.83,0,0,1,4.42,3.95,24.23,24.23,0,0,1,5.89,16.37l0,2.73c0,.26,0,.49,0,.76l0,.68h0v.2h-.25l0,1.64v.14a7.48,7.48,0,0,0,.12,1.17,7.13,7.13,0,0,0-.15,1.23l0,2.8v.1c0,.25,0,.49.07.74a5.82,5.82,0,0,0-.09.85v.07c-.07,5.62-.13,11.88-.15,18.52,0,.11,0,.22,0,.33a3,3,0,0,0,0,.31v5.14a6.47,6.47,0,0,0,.26,1.77c0,3.54,0,7.11,0,10.77a68.09,68.09,0,0,1-.38,7.76c0,.17-.05.35-.06.52-.28,2.48-.67,5-1.2,7.51-.05.27-.12.53-.18.8a71.93,71.93,0,0,1-2.35,8.33c0,.15-.09.31-.15.47-.43,1.22-.91,2.41-1.4,3.6-.27.64-.54,1.27-.82,1.9-.48,1.07-1,2.13-1.48,3.16-.77,1.53-1.58,3-2.46,4.51-.38.65-.81,1.28-1.21,1.92-.74,1.14-1.49,2.28-2.28,3.39-.4.55-.79,1.1-1.2,1.64-1.22,1.6-2.48,3.19-3.83,4.7a74.35,74.35,0,0,1-55.31,24.86ZM854.59,766.72c13.61,18.19,26.45,35.37,26.2,57.06-.46,39.32-23.3,65.84-62.64,72.77a43.15,43.15,0,0,1-10.28.42c-6.67-.29-13.59-.6-25.07,6.31a34.63,34.63,0,0,0-9,8.13c-11.93,14.64-29.12,23-47.14,23H606c.36-.57.68-1.16,1-1.74s.7-1.17,1-1.77c.72-1.23,1.4-2.47,2-3.73.18-.34.35-.69.52-1,.74-1.49,1.45-3,2.11-4.54l0-.06a87.35,87.35,0,0,0,6.55-25c.07-.64.14-1.27.2-1.91.08-1,.17-1.94.22-2.92.1-1.81.17-3.61.15-5.39,0-3.63,0-7.19,0-10.7a7.16,7.16,0,0,0,.24-1.74v-5.13c0-.11,0-.2,0-.31s0-.19,0-.29c0-6.63.08-12.86.15-18.47v-.09a6.2,6.2,0,0,0-.08-.74,7.71,7.71,0,0,0,.1-.84l0-2.72a6.52,6.52,0,0,0-.11-1.33,6.67,6.67,0,0,0,.14-1.19l0-1.73h-.24l.07-4.25v-.06h0a37.47,37.47,0,0,0-16.13-31.66l-.19-.13c-1.61-1.1-3.25-2.18-4.89-3.26l-.71-.47-2.47-1.65h0a6.93,6.93,0,0,0-1.33-1.19l-.89-.65h0l-.08,0,0,0c-.1-.06-.2-.14-.3-.21-.82-.58-1.65-1.16-2.44-1.77-.06-.05-.13-.07-.19-.12a3,3,0,0,0-.26-.24h0c-.88-.68-1.7-1.39-2.5-2.11l-.08-.08c-.13-.12-.29-.21-.43-.32s-.24-.32-.39-.47a23.88,23.88,0,0,1-1.75-1.89c-.14-.17-.31-.3-.47-.46a3.62,3.62,0,0,0-.2-.33l0,0-.06-.1c-.24-.3-.43-.58-.62-.86s-.25-.41-.39-.62a121.18,121.18,0,0,1,4.51-37.73q.74-2.58,1.59-5c.65-1.88,1.39-3.76,2.18-5.65.28-.66.55-1.32.84-2,1-2.26,2.15-4.51,3.4-6.73.1-.18.19-.36.29-.53a77.32,77.32,0,0,1,4.26-6.62l.44-.61c1.41-1.92,3-3.79,4.6-5.61.44-.48.88-1,1.33-1.43q1.75-1.83,3.69-3.55c1.06-1,2.13-1.87,3.25-2.74.75-.6,1.52-1.18,2.31-1.76,1.73-1.23,3.51-2.4,5.37-3.49.53-.31,1.09-.6,1.63-.9a73.5,73.5,0,0,1,6.66-3.28l.08,0,.87-.37c.64-.28,1.28-.56,1.94-.8,15.73-5.93,29-19,37.27-36.77,6.66-14.29,13.47-24.85,19.68-30.55a7.39,7.39,0,0,0,1.06-1.25c.27-.25.55-.51.83-.73.54-.4,1.1-.77,1.68-1.13a70,70,0,0,1,18.34,47.35,7,7,0,0,0,14,0,70.91,70.91,0,0,1,12.77-40.52c14.74,10.22,28,23.85,38.69,36A70.75,70.75,0,0,1,737,684a7,7,0,0,0,0,14,70.84,70.84,0,0,1,70.76,70.76,7,7,0,0,0,14,0,69.94,69.94,0,0,1,8.51-33.43c7.93,9.75,15,18.83,21.52,27.57Z"/><rect class="cls-2" x="120.93" y="228.52" width="563.04" height="676.92" rx="73.53"/><rect class="cls-3" x="120.93" y="198.71" width="563.04" height="676.92" rx="73.53"/><rect class="cls-4" x="184.71" y="468.11" width="95.8" height="73.95" rx="22.19"/><path class="cls-4" d="M374.14,542.06a19.64,19.64,0,0,1-19.58-19.58V487.69a19.64,19.64,0,0,1,19.58-19.58H606.62a19.64,19.64,0,0,1,19.58,19.58v34.79a19.64,19.64,0,0,1-19.58,19.58"/><rect class="cls-4" x="184.71" y="599.97" width="95.8" height="73.95" rx="22.19"/><rect class="cls-4" x="354.56" y="599.97" width="95.8" height="73.95" rx="22.19"/><rect class="cls-4" x="184.71" y="731.84" width="95.8" height="73.95" rx="22.19"/><rect class="cls-4" x="354.56" y="731.84" width="95.8" height="73.95" rx="22.19"/><path class="cls-4" d="M626.2,768.77a37.13,37.13,0,0,1-37,37H567.42a37.12,37.12,0,0,1-37-37V637a37.12,37.12,0,0,1,37-37h21.77a37.13,37.13,0,0,1,37,37"/><path class="cls-4" d="M597.84,265.44A35.69,35.69,0,0,1,633.43,301V393.4A35.69,35.69,0,0,1,597.84,429H212.41a35.68,35.68,0,0,1-35.58-35.58V301a35.68,35.68,0,0,1,35.58-35.58"/><line class="cls-5" x1="212.41" y1="265.44" x2="522.66" y2="265.44"/><line class="cls-5" x1="549.77" y1="265.44" x2="572.66" y2="265.44"/><path class="cls-6" d="M629.28,694.26c15.15-5.71,26.56-18.52,33.4-33.18,6.21-13.32,14.61-28,23.86-35,13.27-10,32.66-7.92,47,.53,33.45,19.77,60.38,58.21,84.83,86.45,13.24,15.3,25.82,31.13,37.89,47.38,14.51,19.52,30.69,39.34,30.38,65-.51,43.67-26.68,72-68.21,79.33-13.32,2.35-17.95-3.22-33,5.86a28.81,28.81,0,0,0-7.26,6.63c-12.93,15.86-32,25.51-52.36,25.51H462s-8-58.67,44.28-63.82c0,0-3.95-83.53,69.39-87.37C575.63,791.59,568.8,717.06,629.28,694.26Z"/><path class="cls-6" d="M292.83,893.67c12.9-10.46-7.91-32.67.53-47s22.07-24.65,35.35-34.62c2.57-1.93,5-4,7.52-6.08Q367,780.66,397,754.34c11.41-10,22.76-20,33.87-30.29,4.57-4.22,9.14-8.47,13.54-12.86,6.67-6.66,14.66-10.15,23-14.5,16-8.33,40.16-2.26,56.81,3.4,32,10.87,41.88,31.4,47.22,61.72,2.18,12.38-2.47,17.25,4.14,30,4.63,8.9,14.8,14.29,23.76,20.47a30.78,30.78,0,0,1,13.22,26c-.22,11.78-.46,30.29-.31,49.78a81.12,81.12,0,0,1-81.06,81.86H321.16c-35.26,0-57-40.47-35.73-68.57A43.64,43.64,0,0,1,292.83,893.67Z"/><circle class="cls-7" cx="813.81" cy="692.6" r="77.74"/><circle class="cls-7" cx="409.36" cy="942.78" r="77.74"/><circle class="cls-7" cx="717.6" cy="599.97" r="77.74"/><path class="cls-8" d="M802,865c2.64-.26,5.29-.61,7.92-1.05"/><path class="cls-8" d="M530.41,801.05q4-.39,7.92-1.06"/><path class="cls-8" d="M717.6,831.24a116.51,116.51,0,0,0,63.11,32.63"/><path class="cls-9" d="M510.76,800.52a47.3,47.3,0,0,1-47.31-47.3"/><line class="cls-4" x1="402.46" y1="265.44" x2="281.05" y2="265.44"/><line class="cls-4" x1="241.71" y1="265.44" x2="258.78" y2="265.44"/><line class="cls-4" x1="396.6" y1="542.06" x2="413.66" y2="542.06"/><line class="cls-5" x1="606.62" y1="542.06" x2="444.82" y2="542.06"/><line class="cls-5" x1="626.2" y1="694.26" x2="626.2" y2="636.99"/><path class="cls-10" d="M213.68,33.5c22.89-13.26,45.13-17.64,49.67-9.79L506.62,425.64h-118L180.46,71.7C175.92,63.86,190.79,46.75,213.68,33.5Z"/><rect class="cls-4" x="214.53" y="91.95" width="174.49" height="174.49" rx="22.04" transform="translate(652.72 183.08) rotate(149.93)"/><path class="cls-4" d="M407.43,187.47s107.93-65.07,268.85-98a11.07,11.07,0,0,0,6-18.24c-20.18-22.38-91.69-62-176.63-48.75C424.52,35.08,345.44,80.91,345.44,80.91Z"/><path class="cls-4" d="M258.58,278.93s-109.87,61.73-218,185.39a11.06,11.06,0,0,1-18.82-3.78c-9.5-28.6-8.62-110.34,44.81-177.67,51-64.32,129.93-110.47,129.93-110.47Z"/><line class="cls-5" x1="210.95" y1="70.36" x2="195.93" y2="45.82"/><line class="cls-5" x1="238.34" y1="115.11" x2="222.16" y2="88.67"/><line class="cls-5" x1="382.27" y1="350.25" x2="330.36" y2="265.44"/><line class="cls-5" x1="395.85" y1="372.43" x2="389.82" y2="362.58"/><line class="cls-5" x1="428.41" y1="425.64" x2="410.89" y2="397.01"/></svg>